<svg xmlns="http://www.w3.org/2000/svg" viewBox="0 0 800 450" width="100%" height="100%">
  <defs>
    <!-- Gradients -->
    <linearGradient id="aws-orange" x1="0%" y1="0%" x2="100%" y2="100%">
      <stop offset="0%" stop-color="#FF9900" />
      <stop offset="100%" stop-color="#FFC400" />
    </linearGradient>
    <linearGradient id="cloud-blue" x1="0%" y1="0%" x2="100%" y2="100%">
      <stop offset="0%" stop-color="#00A3E0" />
      <stop offset="100%" stop-color="#1D70B8" />
    </linearGradient>
    <linearGradient id="success-green" x1="0%" y1="0%" x2="100%" y2="100%">
      <stop offset="0%" stop-color="#10B981" />
      <stop offset="100%" stop-color="#059669" />
    </linearGradient>
    <linearGradient id="alert-red" x1="0%" y1="0%" x2="100%" y2="100%">
      <stop offset="0%" stop-color="#EF4444" />
      <stop offset="100%" stop-color="#DC2626" />
    </linearGradient>
    <linearGradient id="warning-gold" x1="0%" y1="0%" x2="100%" y2="100%">
      <stop offset="0%" stop-color="#F59E0B" />
      <stop offset="100%" stop-color="#D97706" />
    </linearGradient>
    <linearGradient id="dark-card" x1="0%" y1="0%" x2="0%" y2="100%">
      <stop offset="0%" stop-color="#1E293B" />
      <stop offset="100%" stop-color="#0F172A" />
    </linearGradient>
    <linearGradient id="purple-glow" x1="0%" y1="0%" x2="100%" y2="100%">
      <stop offset="0%" stop-color="#8B5CF6" />
      <stop offset="100%" stop-color="#6D28D9" />
    </linearGradient>
    
    <!-- Glow Filters -->
    <filter id="glow-orange" x="-20%" y="-20%" width="140%" height="140%">
      <feGaussianBlur stdDeviation="8" result="blur" />
      <feComposite in="SourceGraphic" in2="blur" operator="over" />
    </filter>
    <filter id="glow-blue" x="-20%" y="-20%" width="140%" height="140%">
      <feGaussianBlur stdDeviation="8" result="blur" />
      <feComposite in="SourceGraphic" in2="blur" operator="over" />
    </filter>
    
    <!-- Grid Pattern -->
    <pattern id="grid" width="40" height="40" patternUnits="userSpaceOnUse">
      <path d="M 40 0 L 0 0 0 40" fill="none" stroke="rgba(148, 163, 184, 0.05)" stroke-width="1"/>
    </pattern>
  </defs>

  <!-- Background -->
  <rect width="800" height="450" fill="#0F172A" />
  <rect width="800" height="450" fill="url(#grid)" />
  
  <!-- Subtle Soft Glows -->
  <circle cx="80.0" cy="90.0" r="240.0" fill="rgba(0, 163, 224, 0.05)" filter="url(#glow-blue)" />
  <circle cx="720.0" cy="360.0" r="240.0" fill="rgba(255, 153, 0, 0.04)" filter="url(#glow-orange)" />
  
  <!-- Slide Header -->
  <text x="40" y="45" font-family="Inter, system-ui, sans-serif" font-size="20" font-weight="700" fill="#F8FAFC">Generative AI Business Metrics</text>
  <rect x="60" y="100" width="210" height="260" rx="12" fill="url(#dark-card)" stroke="#1E293B" stroke-width="1.5" />
  <text x="80" y="135" font-family="Inter, system-ui, sans-serif" font-size="14" font-weight="600" fill="#F8FAFC">System Performance</text>
  <text x="80" y="155" font-family="Inter, system-ui, sans-serif" font-size="11" fill="#94A3B8">Real-time Metrics</text>
<circle cx="165" cy="230" r="50" fill="none" stroke="#1E293B" stroke-width="10" /><circle cx="165" cy="230" r="50" fill="none" stroke="#10B981" stroke-width="10" stroke-dasharray="210 314" stroke-dashoffset="-45" /><line x1="165" y1="230" x2="195" y2="200" stroke="#F8FAFC" stroke-width="3" stroke-linecap="round" /><circle cx="165" cy="230" r="6" fill="#F8FAFC" /><text x="165" y="305" font-family="Inter" font-size="12" font-weight="700" fill="#10B981" text-anchor="middle">92% ACCURACY</text>  <rect x="295" y="100" width="210" height="260" rx="12" fill="url(#dark-card)" stroke="#1E293B" stroke-width="1.5" />
  <text x="315" y="135" font-family="Inter, system-ui, sans-serif" font-size="14" font-weight="600" fill="#F8FAFC">Bias Distribution</text>
  <text x="315" y="155" font-family="Inter, system-ui, sans-serif" font-size="11" fill="#94A3B8">Recall by Category</text>
<rect x="330" y="260" width="22" height="60" rx="2" fill="#EF4444" /><rect x="380" y="180" width="22" height="140" rx="2" fill="#10B981" /><rect x="430" y="220" width="22" height="100" rx="2" fill="#00A3E0" /><line x1="315" y1="320" x2="475" y2="320" stroke="#475569" stroke-width="1.5" />  <rect x="530" y="100" width="210" height="260" rx="12" fill="url(#dark-card)" stroke="#1E293B" stroke-width="1.5" />
  <text x="550" y="135" font-family="Inter, system-ui, sans-serif" font-size="14" font-weight="600" fill="#F8FAFC">Loss Over Time</text>
  <text x="550" y="155" font-family="Inter, system-ui, sans-serif" font-size="11" fill="#94A3B8">Training Convergence</text>
<path d="M 560,170 Q 600,230 640,270 T 710,300" fill="none" stroke="#FF9900" stroke-width="3" /><circle cx="560" cy="170" r="4" fill="#FF9900" /><circle cx="710" cy="300" r="4" fill="#FF9900" />
  <rect x="60" y="380" width="680" height="45" rx="8" fill="rgba(30,41,59,0.3)" stroke="#1E293B" stroke-width="1" />
  <text x="80" y="407" font-family="Inter" font-size="11" fill="#94A3B8">A line graph showing "Average Handle Time" dropping, coupled with a bar chart showing "Customer Satisfact...</text>
</svg>