<svg xmlns="http://www.w3.org/2000/svg" viewBox="0 0 800 450" width="100%" height="100%">
  <defs>
    <!-- Gradients -->
    <linearGradient id="aws-orange" x1="0%" y1="0%" x2="100%" y2="100%">
      <stop offset="0%" stop-color="#FF9900" />
      <stop offset="100%" stop-color="#FFC400" />
    </linearGradient>
    <linearGradient id="cloud-blue" x1="0%" y1="0%" x2="100%" y2="100%">
      <stop offset="0%" stop-color="#00A3E0" />
      <stop offset="100%" stop-color="#1D70B8" />
    </linearGradient>
    <linearGradient id="success-green" x1="0%" y1="0%" x2="100%" y2="100%">
      <stop offset="0%" stop-color="#10B981" />
      <stop offset="100%" stop-color="#059669" />
    </linearGradient>
    <linearGradient id="alert-red" x1="0%" y1="0%" x2="100%" y2="100%">
      <stop offset="0%" stop-color="#EF4444" />
      <stop offset="100%" stop-color="#DC2626" />
    </linearGradient>
    <linearGradient id="warning-gold" x1="0%" y1="0%" x2="100%" y2="100%">
      <stop offset="0%" stop-color="#F59E0B" />
      <stop offset="100%" stop-color="#D97706" />
    </linearGradient>
    <linearGradient id="dark-card" x1="0%" y1="0%" x2="0%" y2="100%">
      <stop offset="0%" stop-color="#1E293B" />
      <stop offset="100%" stop-color="#0F172A" />
    </linearGradient>
    <linearGradient id="purple-glow" x1="0%" y1="0%" x2="100%" y2="100%">
      <stop offset="0%" stop-color="#8B5CF6" />
      <stop offset="100%" stop-color="#6D28D9" />
    </linearGradient>
    
    <!-- Glow Filters -->
    <filter id="glow-orange" x="-20%" y="-20%" width="140%" height="140%">
      <feGaussianBlur stdDeviation="8" result="blur" />
      <feComposite in="SourceGraphic" in2="blur" operator="over" />
    </filter>
    <filter id="glow-blue" x="-20%" y="-20%" width="140%" height="140%">
      <feGaussianBlur stdDeviation="8" result="blur" />
      <feComposite in="SourceGraphic" in2="blur" operator="over" />
    </filter>
    
    <!-- Grid Pattern -->
    <pattern id="grid" width="40" height="40" patternUnits="userSpaceOnUse">
      <path d="M 40 0 L 0 0 0 40" fill="none" stroke="rgba(148, 163, 184, 0.05)" stroke-width="1"/>
    </pattern>
  </defs>

  <!-- Background -->
  <rect width="800" height="450" fill="#0F172A" />
  <rect width="800" height="450" fill="url(#grid)" />
  
  <!-- Subtle Soft Glows -->
  <circle cx="80.0" cy="90.0" r="240.0" fill="rgba(0, 163, 224, 0.05)" filter="url(#glow-blue)" />
  <circle cx="720.0" cy="360.0" r="240.0" fill="rgba(255, 153, 0, 0.04)" filter="url(#glow-orange)" />
  
  <!-- Slide Header -->
  <text x="40" y="45" font-family="Inter, system-ui, sans-serif" font-size="20" font-weight="700" fill="#F8FAFC">Pillars of Data Governance</text>
<polygon points="60,110 740,110 400,50" fill="url(#aws-orange)" stroke="#FF9900" stroke-width="2"/><text x="400" y="90" font-family="Inter, sans-serif" font-size="15" font-weight="700" fill="#0F172A" text-anchor="middle">PILLARS OF DATA GOVERNANCE</text><rect x="50" y="350" width="700" height="40" rx="4" fill="#1E293B" stroke="#1E293B" stroke-width="2"/><text x="400" y="375" font-family="Inter, sans-serif" font-size="13" font-weight="600" fill="#F8FAFC" text-anchor="middle">ARCHITECTURE FOUNDATION</text><rect x="60" y="125" width="155" height="215" rx="6" fill="url(#dark-card)" stroke="#1E293B" stroke-width="2"/>  <g transform="translate(127,140)">
    <path d="M 0 0 L 10 0 C 10 0, 20 6, 20 14 C 20 20, 10 24, 10 24 C 10 24, 0 20, 0 14 Z" fill="none" stroke="#00A3E0" stroke-width="1.5"/>
  </g><text x="137" y="190" font-family="Inter, sans-serif" font-size="11" font-weight="700" fill="#F8FAFC" text-anchor="middle">C</text><text x="137" y="204" font-family="Inter, sans-serif" font-size="11" font-weight="700" fill="#F8FAFC" text-anchor="middle">U</text><text x="137" y="218" font-family="Inter, sans-serif" font-size="11" font-weight="700" fill="#F8FAFC" text-anchor="middle">R</text><text x="137" y="232" font-family="Inter, sans-serif" font-size="11" font-weight="700" fill="#F8FAFC" text-anchor="middle">A</text><text x="137" y="246" font-family="Inter, sans-serif" font-size="11" font-weight="700" fill="#F8FAFC" text-anchor="middle">T</text><text x="137" y="260" font-family="Inter, sans-serif" font-size="11" font-weight="700" fill="#F8FAFC" text-anchor="middle">E</text><text x="137" y="274" font-family="Inter, sans-serif" font-size="11" font-weight="700" fill="#F8FAFC" text-anchor="middle">:</text><rect x="235" y="125" width="155" height="215" rx="6" fill="url(#dark-card)" stroke="#1E293B" stroke-width="2"/>  <g transform="translate(302,140)">
    <path d="M 0 0 L 10 0 C 10 0, 20 6, 20 14 C 20 20, 10 24, 10 24 C 10 24, 0 20, 0 14 Z" fill="none" stroke="#00A3E0" stroke-width="1.5"/>
  </g><text x="312" y="190" font-family="Inter, sans-serif" font-size="11" font-weight="700" fill="#F8FAFC" text-anchor="middle">U</text><text x="312" y="204" font-family="Inter, sans-serif" font-size="11" font-weight="700" fill="#F8FAFC" text-anchor="middle">N</text><text x="312" y="218" font-family="Inter, sans-serif" font-size="11" font-weight="700" fill="#F8FAFC" text-anchor="middle">D</text><text x="312" y="232" font-family="Inter, sans-serif" font-size="11" font-weight="700" fill="#F8FAFC" text-anchor="middle">E</text><text x="312" y="246" font-family="Inter, sans-serif" font-size="11" font-weight="700" fill="#F8FAFC" text-anchor="middle">R</text><text x="312" y="260" font-family="Inter, sans-serif" font-size="11" font-weight="700" fill="#F8FAFC" text-anchor="middle">S</text><text x="312" y="274" font-family="Inter, sans-serif" font-size="11" font-weight="700" fill="#F8FAFC" text-anchor="middle">T</text><text x="312" y="288" font-family="Inter, sans-serif" font-size="11" font-weight="700" fill="#F8FAFC" text-anchor="middle">A</text><text x="312" y="302" font-family="Inter, sans-serif" font-size="11" font-weight="700" fill="#F8FAFC" text-anchor="middle">N</text><text x="312" y="316" font-family="Inter, sans-serif" font-size="11" font-weight="700" fill="#F8FAFC" text-anchor="middle">D</text><rect x="410" y="125" width="155" height="215" rx="6" fill="url(#dark-card)" stroke="#1E293B" stroke-width="2"/>  <g transform="translate(477,140)">
    <path d="M 0 0 L 10 0 C 10 0, 20 6, 20 14 C 20 20, 10 24, 10 24 C 10 24, 0 20, 0 14 Z" fill="none" stroke="#00A3E0" stroke-width="1.5"/>
  </g><text x="487" y="190" font-family="Inter, sans-serif" font-size="11" font-weight="700" fill="#F8FAFC" text-anchor="middle">P</text><text x="487" y="204" font-family="Inter, sans-serif" font-size="11" font-weight="700" fill="#F8FAFC" text-anchor="middle">R</text><text x="487" y="218" font-family="Inter, sans-serif" font-size="11" font-weight="700" fill="#F8FAFC" text-anchor="middle">O</text><text x="487" y="232" font-family="Inter, sans-serif" font-size="11" font-weight="700" fill="#F8FAFC" text-anchor="middle">T</text><text x="487" y="246" font-family="Inter, sans-serif" font-size="11" font-weight="700" fill="#F8FAFC" text-anchor="middle">E</text><text x="487" y="260" font-family="Inter, sans-serif" font-size="11" font-weight="700" fill="#F8FAFC" text-anchor="middle">C</text><text x="487" y="274" font-family="Inter, sans-serif" font-size="11" font-weight="700" fill="#F8FAFC" text-anchor="middle">T</text><text x="487" y="288" font-family="Inter, sans-serif" font-size="11" font-weight="700" fill="#F8FAFC" text-anchor="middle">:</text><rect x="585" y="125" width="155" height="215" rx="6" fill="url(#dark-card)" stroke="#1E293B" stroke-width="2"/>  <g transform="translate(652,140)">
    <path d="M 0 0 L 10 0 C 10 0, 20 6, 20 14 C 20 20, 10 24, 10 24 C 10 24, 0 20, 0 14 Z" fill="none" stroke="#00A3E0" stroke-width="1.5"/>
  </g><text x="662" y="190" font-family="Inter, sans-serif" font-size="11" font-weight="700" fill="#F8FAFC" text-anchor="middle">R</text><text x="662" y="204" font-family="Inter, sans-serif" font-size="11" font-weight="700" fill="#F8FAFC" text-anchor="middle">O</text><text x="662" y="218" font-family="Inter, sans-serif" font-size="11" font-weight="700" fill="#F8FAFC" text-anchor="middle">L</text><text x="662" y="232" font-family="Inter, sans-serif" font-size="11" font-weight="700" fill="#F8FAFC" text-anchor="middle">E</text><text x="662" y="246" font-family="Inter, sans-serif" font-size="11" font-weight="700" fill="#F8FAFC" text-anchor="middle">S</text><text x="662" y="260" font-family="Inter, sans-serif" font-size="11" font-weight="700" fill="#F8FAFC" text-anchor="middle">:</text></svg>