<svg xmlns="http://www.w3.org/2000/svg" viewBox="0 0 800 450" width="100%" height="100%">
  <defs>
    <!-- Gradients -->
    <linearGradient id="aws-orange" x1="0%" y1="0%" x2="100%" y2="100%">
      <stop offset="0%" stop-color="#FF9900" />
      <stop offset="100%" stop-color="#FFC400" />
    </linearGradient>
    <linearGradient id="cloud-blue" x1="0%" y1="0%" x2="100%" y2="100%">
      <stop offset="0%" stop-color="#00A3E0" />
      <stop offset="100%" stop-color="#1D70B8" />
    </linearGradient>
    <linearGradient id="success-green" x1="0%" y1="0%" x2="100%" y2="100%">
      <stop offset="0%" stop-color="#10B981" />
      <stop offset="100%" stop-color="#059669" />
    </linearGradient>
    <linearGradient id="alert-red" x1="0%" y1="0%" x2="100%" y2="100%">
      <stop offset="0%" stop-color="#EF4444" />
      <stop offset="100%" stop-color="#DC2626" />
    </linearGradient>
    <linearGradient id="warning-gold" x1="0%" y1="0%" x2="100%" y2="100%">
      <stop offset="0%" stop-color="#F59E0B" />
      <stop offset="100%" stop-color="#D97706" />
    </linearGradient>
    <linearGradient id="dark-card" x1="0%" y1="0%" x2="0%" y2="100%">
      <stop offset="0%" stop-color="#1E293B" />
      <stop offset="100%" stop-color="#0F172A" />
    </linearGradient>
    <linearGradient id="purple-glow" x1="0%" y1="0%" x2="100%" y2="100%">
      <stop offset="0%" stop-color="#8B5CF6" />
      <stop offset="100%" stop-color="#6D28D9" />
    </linearGradient>
    
    <!-- Glow Filters -->
    <filter id="glow-orange" x="-20%" y="-20%" width="140%" height="140%">
      <feGaussianBlur stdDeviation="8" result="blur" />
      <feComposite in="SourceGraphic" in2="blur" operator="over" />
    </filter>
    <filter id="glow-blue" x="-20%" y="-20%" width="140%" height="140%">
      <feGaussianBlur stdDeviation="8" result="blur" />
      <feComposite in="SourceGraphic" in2="blur" operator="over" />
    </filter>
    
    <!-- Grid Pattern -->
    <pattern id="grid" width="40" height="40" patternUnits="userSpaceOnUse">
      <path d="M 40 0 L 0 0 0 40" fill="none" stroke="rgba(148, 163, 184, 0.05)" stroke-width="1"/>
    </pattern>
  </defs>

  <!-- Background -->
  <rect width="800" height="450" fill="#0F172A" />
  <rect width="800" height="450" fill="url(#grid)" />
  
  <!-- Subtle Soft Glows -->
  <circle cx="80.0" cy="90.0" r="240.0" fill="rgba(0, 163, 224, 0.05)" filter="url(#glow-blue)" />
  <circle cx="720.0" cy="360.0" r="240.0" fill="rgba(255, 153, 0, 0.04)" filter="url(#glow-orange)" />
  
  <!-- Slide Header -->
  <text x="40" y="45" font-family="Inter, system-ui, sans-serif" font-size="20" font-weight="700" fill="#F8FAFC">Pillars of Responsible AI</text>
<polygon points="60,110 740,110 400,50" fill="url(#aws-orange)" stroke="#FF9900" stroke-width="2"/><text x="400" y="90" font-family="Inter, sans-serif" font-size="15" font-weight="700" fill="#0F172A" text-anchor="middle">PILLARS OF RESPONSIBLE AI</text><rect x="50" y="350" width="700" height="40" rx="4" fill="#1E293B" stroke="#1E293B" stroke-width="2"/><text x="400" y="375" font-family="Inter, sans-serif" font-size="13" font-weight="600" fill="#F8FAFC" text-anchor="middle">ARCHITECTURE FOUNDATION</text><rect x="60" y="125" width="120" height="215" rx="6" fill="url(#dark-card)" stroke="#1E293B" stroke-width="2"/>  <g transform="translate(110,140)">
    <path d="M 0 0 L 10 0 C 10 0, 20 6, 20 14 C 20 20, 10 24, 10 24 C 10 24, 0 20, 0 14 Z" fill="none" stroke="#00A3E0" stroke-width="1.5"/>
  </g><text x="120" y="180" font-family="Inter, sans-serif" font-size="10.5" font-weight="700" fill="#F8FAFC" text-anchor="middle">F</text><text x="120" y="194" font-family="Inter, sans-serif" font-size="10.5" font-weight="700" fill="#F8FAFC" text-anchor="middle">A</text><text x="120" y="208" font-family="Inter, sans-serif" font-size="10.5" font-weight="700" fill="#F8FAFC" text-anchor="middle">I</text><text x="120" y="222" font-family="Inter, sans-serif" font-size="10.5" font-weight="700" fill="#F8FAFC" text-anchor="middle">R</text><text x="120" y="236" font-family="Inter, sans-serif" font-size="10.5" font-weight="700" fill="#F8FAFC" text-anchor="middle">N</text><text x="120" y="250" font-family="Inter, sans-serif" font-size="10.5" font-weight="700" fill="#F8FAFC" text-anchor="middle">E</text><text x="120" y="264" font-family="Inter, sans-serif" font-size="10.5" font-weight="700" fill="#F8FAFC" text-anchor="middle">S</text><text x="120" y="278" font-family="Inter, sans-serif" font-size="10.5" font-weight="700" fill="#F8FAFC" text-anchor="middle">S</text><text x="120" y="292" font-family="Inter, sans-serif" font-size="10.5" font-weight="700" fill="#F8FAFC" text-anchor="middle">:</text><rect x="200" y="125" width="120" height="215" rx="6" fill="url(#dark-card)" stroke="#1E293B" stroke-width="2"/>  <g transform="translate(250,140)">
    <path d="M 0 0 L 10 0 C 10 0, 20 6, 20 14 C 20 20, 10 24, 10 24 C 10 24, 0 20, 0 14 Z" fill="none" stroke="#00A3E0" stroke-width="1.5"/>
  </g><text x="260" y="180" font-family="Inter, sans-serif" font-size="10.5" font-weight="700" fill="#F8FAFC" text-anchor="middle">E</text><text x="260" y="194" font-family="Inter, sans-serif" font-size="10.5" font-weight="700" fill="#F8FAFC" text-anchor="middle">X</text><text x="260" y="208" font-family="Inter, sans-serif" font-size="10.5" font-weight="700" fill="#F8FAFC" text-anchor="middle">P</text><text x="260" y="222" font-family="Inter, sans-serif" font-size="10.5" font-weight="700" fill="#F8FAFC" text-anchor="middle">L</text><text x="260" y="236" font-family="Inter, sans-serif" font-size="10.5" font-weight="700" fill="#F8FAFC" text-anchor="middle">A</text><text x="260" y="250" font-family="Inter, sans-serif" font-size="10.5" font-weight="700" fill="#F8FAFC" text-anchor="middle">I</text><text x="260" y="264" font-family="Inter, sans-serif" font-size="10.5" font-weight="700" fill="#F8FAFC" text-anchor="middle">N</text><text x="260" y="278" font-family="Inter, sans-serif" font-size="10.5" font-weight="700" fill="#F8FAFC" text-anchor="middle">A</text><text x="260" y="292" font-family="Inter, sans-serif" font-size="10.5" font-weight="700" fill="#F8FAFC" text-anchor="middle">B</text><rect x="340" y="125" width="120" height="215" rx="6" fill="url(#dark-card)" stroke="#1E293B" stroke-width="2"/>  <g transform="translate(390,140)">
    <path d="M 0 0 L 10 0 C 10 0, 20 6, 20 14 C 20 20, 10 24, 10 24 C 10 24, 0 20, 0 14 Z" fill="none" stroke="#00A3E0" stroke-width="1.5"/>
  </g><text x="400" y="180" font-family="Inter, sans-serif" font-size="10.5" font-weight="700" fill="#F8FAFC" text-anchor="middle">R</text><text x="400" y="194" font-family="Inter, sans-serif" font-size="10.5" font-weight="700" fill="#F8FAFC" text-anchor="middle">O</text><text x="400" y="208" font-family="Inter, sans-serif" font-size="10.5" font-weight="700" fill="#F8FAFC" text-anchor="middle">B</text><text x="400" y="222" font-family="Inter, sans-serif" font-size="10.5" font-weight="700" fill="#F8FAFC" text-anchor="middle">U</text><text x="400" y="236" font-family="Inter, sans-serif" font-size="10.5" font-weight="700" fill="#F8FAFC" text-anchor="middle">S</text><text x="400" y="250" font-family="Inter, sans-serif" font-size="10.5" font-weight="700" fill="#F8FAFC" text-anchor="middle">T</text><text x="400" y="264" font-family="Inter, sans-serif" font-size="10.5" font-weight="700" fill="#F8FAFC" text-anchor="middle">N</text><text x="400" y="278" font-family="Inter, sans-serif" font-size="10.5" font-weight="700" fill="#F8FAFC" text-anchor="middle">E</text><text x="400" y="292" font-family="Inter, sans-serif" font-size="10.5" font-weight="700" fill="#F8FAFC" text-anchor="middle">S</text><rect x="480" y="125" width="120" height="215" rx="6" fill="url(#dark-card)" stroke="#1E293B" stroke-width="2"/>  <g transform="translate(530,140)">
    <path d="M 0 0 L 10 0 C 10 0, 20 6, 20 14 C 20 20, 10 24, 10 24 C 10 24, 0 20, 0 14 Z" fill="none" stroke="#00A3E0" stroke-width="1.5"/>
  </g><text x="540" y="180" font-family="Inter, sans-serif" font-size="10.5" font-weight="700" fill="#F8FAFC" text-anchor="middle">P</text><text x="540" y="194" font-family="Inter, sans-serif" font-size="10.5" font-weight="700" fill="#F8FAFC" text-anchor="middle">R</text><text x="540" y="208" font-family="Inter, sans-serif" font-size="10.5" font-weight="700" fill="#F8FAFC" text-anchor="middle">I</text><text x="540" y="222" font-family="Inter, sans-serif" font-size="10.5" font-weight="700" fill="#F8FAFC" text-anchor="middle">V</text><text x="540" y="236" font-family="Inter, sans-serif" font-size="10.5" font-weight="700" fill="#F8FAFC" text-anchor="middle">A</text><text x="540" y="250" font-family="Inter, sans-serif" font-size="10.5" font-weight="700" fill="#F8FAFC" text-anchor="middle">C</text><text x="540" y="264" font-family="Inter, sans-serif" font-size="10.5" font-weight="700" fill="#F8FAFC" text-anchor="middle">Y</text><text x="540" y="278" font-family="Inter, sans-serif" font-size="10.5" font-weight="700" fill="#F8FAFC" text-anchor="middle"> </text><text x="540" y="292" font-family="Inter, sans-serif" font-size="10.5" font-weight="700" fill="#F8FAFC" text-anchor="middle">&amp;</text><rect x="620" y="125" width="120" height="215" rx="6" fill="url(#dark-card)" stroke="#1E293B" stroke-width="2"/>  <g transform="translate(670,140)">
    <path d="M 0 0 L 10 0 C 10 0, 20 6, 20 14 C 20 20, 10 24, 10 24 C 10 24, 0 20, 0 14 Z" fill="none" stroke="#00A3E0" stroke-width="1.5"/>
  </g><text x="680" y="180" font-family="Inter, sans-serif" font-size="10.5" font-weight="700" fill="#F8FAFC" text-anchor="middle">G</text><text x="680" y="194" font-family="Inter, sans-serif" font-size="10.5" font-weight="700" fill="#F8FAFC" text-anchor="middle">O</text><text x="680" y="208" font-family="Inter, sans-serif" font-size="10.5" font-weight="700" fill="#F8FAFC" text-anchor="middle">V</text><text x="680" y="222" font-family="Inter, sans-serif" font-size="10.5" font-weight="700" fill="#F8FAFC" text-anchor="middle">E</text><text x="680" y="236" font-family="Inter, sans-serif" font-size="10.5" font-weight="700" fill="#F8FAFC" text-anchor="middle">R</text><text x="680" y="250" font-family="Inter, sans-serif" font-size="10.5" font-weight="700" fill="#F8FAFC" text-anchor="middle">N</text><text x="680" y="264" font-family="Inter, sans-serif" font-size="10.5" font-weight="700" fill="#F8FAFC" text-anchor="middle">A</text><text x="680" y="278" font-family="Inter, sans-serif" font-size="10.5" font-weight="700" fill="#F8FAFC" text-anchor="middle">N</text><text x="680" y="292" font-family="Inter, sans-serif" font-size="10.5" font-weight="700" fill="#F8FAFC" text-anchor="middle">C</text></svg>