<svg xmlns="http://www.w3.org/2000/svg" viewBox="0 0 800 450" width="100%" height="100%">
  <defs>
    <!-- Gradients -->
    <linearGradient id="aws-orange" x1="0%" y1="0%" x2="100%" y2="100%">
      <stop offset="0%" stop-color="#FF9900" />
      <stop offset="100%" stop-color="#FFC400" />
    </linearGradient>
    <linearGradient id="cloud-blue" x1="0%" y1="0%" x2="100%" y2="100%">
      <stop offset="0%" stop-color="#00A3E0" />
      <stop offset="100%" stop-color="#1D70B8" />
    </linearGradient>
    <linearGradient id="success-green" x1="0%" y1="0%" x2="100%" y2="100%">
      <stop offset="0%" stop-color="#10B981" />
      <stop offset="100%" stop-color="#059669" />
    </linearGradient>
    <linearGradient id="alert-red" x1="0%" y1="0%" x2="100%" y2="100%">
      <stop offset="0%" stop-color="#EF4444" />
      <stop offset="100%" stop-color="#DC2626" />
    </linearGradient>
    <linearGradient id="warning-gold" x1="0%" y1="0%" x2="100%" y2="100%">
      <stop offset="0%" stop-color="#F59E0B" />
      <stop offset="100%" stop-color="#D97706" />
    </linearGradient>
    <linearGradient id="dark-card" x1="0%" y1="0%" x2="0%" y2="100%">
      <stop offset="0%" stop-color="#1E293B" />
      <stop offset="100%" stop-color="#0F172A" />
    </linearGradient>
    <linearGradient id="purple-glow" x1="0%" y1="0%" x2="100%" y2="100%">
      <stop offset="0%" stop-color="#8B5CF6" />
      <stop offset="100%" stop-color="#6D28D9" />
    </linearGradient>
    
    <!-- Glow Filters -->
    <filter id="glow-orange" x="-20%" y="-20%" width="140%" height="140%">
      <feGaussianBlur stdDeviation="8" result="blur" />
      <feComposite in="SourceGraphic" in2="blur" operator="over" />
    </filter>
    <filter id="glow-blue" x="-20%" y="-20%" width="140%" height="140%">
      <feGaussianBlur stdDeviation="8" result="blur" />
      <feComposite in="SourceGraphic" in2="blur" operator="over" />
    </filter>
    
    <!-- Grid Pattern -->
    <pattern id="grid" width="40" height="40" patternUnits="userSpaceOnUse">
      <path d="M 40 0 L 0 0 0 40" fill="none" stroke="rgba(148, 163, 184, 0.05)" stroke-width="1"/>
    </pattern>
  </defs>

  <!-- Background -->
  <rect width="800" height="450" fill="#0F172A" />
  <rect width="800" height="450" fill="url(#grid)" />
  
  <!-- Subtle Soft Glows -->
  <circle cx="80.0" cy="90.0" r="240.0" fill="rgba(0, 163, 224, 0.05)" filter="url(#glow-blue)" />
  <circle cx="720.0" cy="360.0" r="240.0" fill="rgba(255, 153, 0, 0.04)" filter="url(#glow-orange)" />
  
  <!-- Slide Header -->
  <text x="40" y="45" font-family="Inter, system-ui, sans-serif" font-size="20" font-weight="700" fill="#F8FAFC">Repositories, Orchestration, &amp; MLOps</text>
  <rect x="60" y="140" width="160" height="140" rx="12" fill="url(#dark-card)" stroke="#1E293B" stroke-width="1.5" />
  <text x="80" y="175" font-family="Inter, system-ui, sans-serif" font-size="14" font-weight="600" fill="#F8FAFC">Raw Data Source</text>
  <text x="80" y="195" font-family="Inter, system-ui, sans-serif" font-size="11" fill="#94A3B8">S3 Data Pool</text>
  <g transform="translate(128,210)">
    <path d="M 0 6 C 0 1, 20 1, 20 6 C 20 11, 0 11, 0 6 Z" fill="none" stroke="#FF9900" stroke-width="1.5"/>
    <path d="M 0 6 L 0 12 C 0 17, 20 17, 20 12 L 20 6" fill="none" stroke="#FF9900" stroke-width="1.5"/>
    <path d="M 0 12 L 0 18 C 0 23, 20 23, 20 18 L 20 12" fill="none" stroke="#FF9900" stroke-width="1.5"/>
  </g>  <rect x="280" y="140" width="240" height="140" rx="12" fill="url(#dark-card)" stroke="#1E293B" stroke-width="1.5" />
  <text x="300" y="175" font-family="Inter, system-ui, sans-serif" font-size="14" font-weight="600" fill="#F8FAFC">Glue DataBrew</text>
  <text x="300" y="195" font-family="Inter, system-ui, sans-serif" font-size="11" fill="#94A3B8">Discovery &amp; Curation</text>
<line x1="300" y1="210" x2="500" y2="210" stroke="#475569" stroke-width="4" /><circle cx="330" cy="210" r="8" fill="none" stroke="#475569" stroke-width="2" /><circle cx="470" cy="210" r="8" fill="none" stroke="#475569" stroke-width="2" /><text x="400" y="190" font-family="Inter" font-size="10.5" fill="#10B981" font-weight="700" text-anchor="middle">FILTER PII &amp; FORMAT</text>  <rect x="580" y="140" width="160" height="140" rx="12" fill="url(#dark-card)" stroke="#1E293B" stroke-width="1.5" />
  <text x="600" y="175" font-family="Inter, system-ui, sans-serif" font-size="14" font-weight="600" fill="#F8FAFC">Curated Lake</text>
  <text x="600" y="195" font-family="Inter, system-ui, sans-serif" font-size="11" fill="#94A3B8">Lake Formation</text>
  <g transform="translate(648,210)">
    <path d="M 0 6 C 0 1, 20 1, 20 6 C 20 11, 0 11, 0 6 Z" fill="none" stroke="#10B981" stroke-width="1.5"/>
    <path d="M 0 6 L 0 12 C 0 17, 20 17, 20 12 L 20 6" fill="none" stroke="#10B981" stroke-width="1.5"/>
    <path d="M 0 12 L 0 18 C 0 23, 20 23, 20 18 L 20 12" fill="none" stroke="#10B981" stroke-width="1.5"/>
  </g>  <line x1="220" y1="210" x2="280" y2="210" stroke="url(#aws-orange)" stroke-width="2"  />
  <path d="M 280 210 L 273.0717967697245 214.0 L 273.0717967697245 206.0 Z" fill="url(#aws-orange)" />
  
  <line x1="520" y1="210" x2="580" y2="210" stroke="url(#aws-orange)" stroke-width="2"  />
  <path d="M 580 210 L 573.0717967697245 214.0 L 573.0717967697245 206.0 Z" fill="url(#aws-orange)" />
  

  <rect x="60" y="310" width="680" height="110" rx="8" fill="rgba(30,41,59,0.3)" stroke="#1E293B" stroke-width="1" />
  <text x="80" y="340" font-family="Inter, sans-serif" font-size="13" font-weight="700" fill="#F8FAFC">Data Curation Architecture</text>
  <text x="80" y="365" font-family="Inter, sans-serif" font-size="11.5" fill="#94A3B8">An orchestration pipeline. Source code in Git and features in Feature Store are pulled by an orchestratio...</text>
  <text x="80" y="390" font-family="Inter, sans-serif" font-size="11.5" fill="#94A3B8">Optimizing analytical workloads with clean partitions and catalog storage mappings.</text>
</svg>