<svg xmlns="http://www.w3.org/2000/svg" viewBox="0 0 800 450" width="100%" height="100%">
  <defs>
    <!-- Gradients -->
    <linearGradient id="aws-orange" x1="0%" y1="0%" x2="100%" y2="100%">
      <stop offset="0%" stop-color="#FF9900" />
      <stop offset="100%" stop-color="#FFC400" />
    </linearGradient>
    <linearGradient id="cloud-blue" x1="0%" y1="0%" x2="100%" y2="100%">
      <stop offset="0%" stop-color="#00A3E0" />
      <stop offset="100%" stop-color="#1D70B8" />
    </linearGradient>
    <linearGradient id="success-green" x1="0%" y1="0%" x2="100%" y2="100%">
      <stop offset="0%" stop-color="#10B981" />
      <stop offset="100%" stop-color="#059669" />
    </linearGradient>
    <linearGradient id="alert-red" x1="0%" y1="0%" x2="100%" y2="100%">
      <stop offset="0%" stop-color="#EF4444" />
      <stop offset="100%" stop-color="#DC2626" />
    </linearGradient>
    <linearGradient id="warning-gold" x1="0%" y1="0%" x2="100%" y2="100%">
      <stop offset="0%" stop-color="#F59E0B" />
      <stop offset="100%" stop-color="#D97706" />
    </linearGradient>
    <linearGradient id="dark-card" x1="0%" y1="0%" x2="0%" y2="100%">
      <stop offset="0%" stop-color="#1E293B" />
      <stop offset="100%" stop-color="#0F172A" />
    </linearGradient>
    <linearGradient id="purple-glow" x1="0%" y1="0%" x2="100%" y2="100%">
      <stop offset="0%" stop-color="#8B5CF6" />
      <stop offset="100%" stop-color="#6D28D9" />
    </linearGradient>
    
    <!-- Glow Filters -->
    <filter id="glow-orange" x="-20%" y="-20%" width="140%" height="140%">
      <feGaussianBlur stdDeviation="8" result="blur" />
      <feComposite in="SourceGraphic" in2="blur" operator="over" />
    </filter>
    <filter id="glow-blue" x="-20%" y="-20%" width="140%" height="140%">
      <feGaussianBlur stdDeviation="8" result="blur" />
      <feComposite in="SourceGraphic" in2="blur" operator="over" />
    </filter>
    
    <!-- Grid Pattern -->
    <pattern id="grid" width="40" height="40" patternUnits="userSpaceOnUse">
      <path d="M 40 0 L 0 0 0 40" fill="none" stroke="rgba(148, 163, 184, 0.05)" stroke-width="1"/>
    </pattern>
  </defs>

  <!-- Background -->
  <rect width="800" height="450" fill="#0F172A" />
  <rect width="800" height="450" fill="url(#grid)" />
  
  <!-- Subtle Soft Glows -->
  <circle cx="80" cy="90" r="240" fill="rgba(0, 163, 224, 0.05)" filter="url(#glow-blue)" />
  <circle cx="720" cy="360" r="240" fill="rgba(255, 153, 0, 0.04)" filter="url(#glow-orange)" />
  
  <!-- Slide Header -->
  <text x="40" y="45" font-family="Inter, system-ui, sans-serif" font-size="20" font-weight="700" fill="#F8FAFC">Class Imbalance in Training Datasets</text>
  <text x="760" y="40" font-family="Inter, system-ui, sans-serif" font-size="10.5" font-weight="600" fill="#94A3B8" text-anchor="end">v0.3 beta | Mikeb</text>
<rect x="60" y="95" width="310" height="290" rx="12" fill="url(#dark-card)" stroke="#10B981" stroke-width="1.5" />
  <text x="80" y="125" font-family="Inter, system-ui, sans-serif" font-size="13" font-weight="600" fill="#F8FAFC">Majority Representation Class (90%)</text>
  <text x="80" y="145" font-family="Inter, system-ui, sans-serif" font-size="10.5" fill="#94A3B8">Model overfits and favors this class</text><circle cx="90" cy="160" r="5" fill="#10B981" /><circle cx="90" cy="190" r="5" fill="#10B981" /><circle cx="90" cy="220" r="5" fill="#10B981" /><circle cx="90" cy="250" r="5" fill="#10B981" /><circle cx="90" cy="280" r="5" fill="#10B981" /><circle cx="90" cy="310" r="5" fill="#10B981" /><circle cx="120" cy="160" r="5" fill="#10B981" /><circle cx="120" cy="190" r="5" fill="#10B981" /><circle cx="120" cy="220" r="5" fill="#10B981" /><circle cx="120" cy="250" r="5" fill="#10B981" /><circle cx="120" cy="280" r="5" fill="#10B981" /><circle cx="120" cy="310" r="5" fill="#10B981" /><circle cx="150" cy="160" r="5" fill="#10B981" /><circle cx="150" cy="190" r="5" fill="#10B981" /><circle cx="150" cy="220" r="5" fill="#10B981" /><circle cx="150" cy="250" r="5" fill="#10B981" /><circle cx="150" cy="280" r="5" fill="#10B981" /><circle cx="150" cy="310" r="5" fill="#10B981" /><circle cx="180" cy="160" r="5" fill="#10B981" /><circle cx="180" cy="190" r="5" fill="#10B981" /><circle cx="180" cy="220" r="5" fill="#10B981" /><circle cx="180" cy="250" r="5" fill="#10B981" /><circle cx="180" cy="280" r="5" fill="#10B981" /><circle cx="180" cy="310" r="5" fill="#10B981" /><circle cx="210" cy="160" r="5" fill="#10B981" /><circle cx="210" cy="190" r="5" fill="#10B981" /><circle cx="210" cy="220" r="5" fill="#10B981" /><circle cx="210" cy="250" r="5" fill="#10B981" /><circle cx="210" cy="280" r="5" fill="#10B981" /><circle cx="210" cy="310" r="5" fill="#10B981" /><circle cx="240" cy="160" r="5" fill="#10B981" /><circle cx="240" cy="190" r="5" fill="#10B981" /><circle cx="240" cy="220" r="5" fill="#10B981" /><circle cx="240" cy="250" r="5" fill="#10B981" /><circle cx="240" cy="280" r="5" fill="#10B981" /><circle cx="240" cy="310" r="5" fill="#10B981" /><circle cx="270" cy="160" r="5" fill="#10B981" /><circle cx="270" cy="190" r="5" fill="#10B981" /><circle cx="270" cy="220" r="5" fill="#10B981" /><circle cx="270" cy="250" r="5" fill="#10B981" /><circle cx="270" cy="280" r="5" fill="#10B981" /><circle cx="270" cy="310" r="5" fill="#10B981" /><circle cx="300" cy="160" r="5" fill="#10B981" /><circle cx="300" cy="190" r="5" fill="#10B981" /><circle cx="300" cy="220" r="5" fill="#10B981" /><circle cx="300" cy="250" r="5" fill="#10B981" /><circle cx="300" cy="280" r="5" fill="#10B981" /><circle cx="300" cy="310" r="5" fill="#10B981" /><circle cx="330" cy="160" r="5" fill="#10B981" /><circle cx="330" cy="190" r="5" fill="#10B981" /><circle cx="330" cy="220" r="5" fill="#10B981" /><circle cx="330" cy="250" r="5" fill="#10B981" /><circle cx="330" cy="280" r="5" fill="#10B981" /><circle cx="330" cy="310" r="5" fill="#10B981" /><rect x="430" y="95" width="310" height="290" rx="12" fill="url(#dark-card)" stroke="#EF4444" stroke-width="1.5" />
  <text x="450" y="125" font-family="Inter, system-ui, sans-serif" font-size="13" font-weight="600" fill="#F8FAFC">Underrepresented Class (10%)</text>
  <text x="450" y="145" font-family="Inter, system-ui, sans-serif" font-size="10.5" fill="#94A3B8">Model fails to learn patterns correctly</text><circle cx="480" cy="200" r="5" fill="#EF4444" filter="url(#glow-orange)" /><circle cx="480" cy="250" r="5" fill="#EF4444" filter="url(#glow-orange)" /><circle cx="550" cy="200" r="5" fill="#EF4444" filter="url(#glow-orange)" /><circle cx="550" cy="250" r="5" fill="#EF4444" filter="url(#glow-orange)" /><circle cx="620" cy="200" r="5" fill="#EF4444" filter="url(#glow-orange)" /><circle cx="620" cy="250" r="5" fill="#EF4444" filter="url(#glow-orange)" /><circle cx="690" cy="200" r="5" fill="#EF4444" filter="url(#glow-orange)" /><circle cx="690" cy="250" r="5" fill="#EF4444" filter="url(#glow-orange)" /><text x="400" y="410" font-family="Inter" font-size="11.5" fill="#EF4444" font-weight="700" text-anchor="middle">Class Imbalance leads to Demographic Disparities in predictions</text>
</svg>