<svg xmlns="http://www.w3.org/2000/svg" viewBox="0 0 800 450" width="100%" height="100%">
  <defs>
    <!-- Gradients -->
    <linearGradient id="aws-orange" x1="0%" y1="0%" x2="100%" y2="100%">
      <stop offset="0%" stop-color="#FF9900" />
      <stop offset="100%" stop-color="#FFC400" />
    </linearGradient>
    <linearGradient id="cloud-blue" x1="0%" y1="0%" x2="100%" y2="100%">
      <stop offset="0%" stop-color="#00A3E0" />
      <stop offset="100%" stop-color="#1D70B8" />
    </linearGradient>
    <linearGradient id="success-green" x1="0%" y1="0%" x2="100%" y2="100%">
      <stop offset="0%" stop-color="#10B981" />
      <stop offset="100%" stop-color="#059669" />
    </linearGradient>
    <linearGradient id="alert-red" x1="0%" y1="0%" x2="100%" y2="100%">
      <stop offset="0%" stop-color="#EF4444" />
      <stop offset="100%" stop-color="#DC2626" />
    </linearGradient>
    <linearGradient id="warning-gold" x1="0%" y1="0%" x2="100%" y2="100%">
      <stop offset="0%" stop-color="#F59E0B" />
      <stop offset="100%" stop-color="#D97706" />
    </linearGradient>
    <linearGradient id="dark-card" x1="0%" y1="0%" x2="0%" y2="100%">
      <stop offset="0%" stop-color="#1E293B" />
      <stop offset="100%" stop-color="#0F172A" />
    </linearGradient>
    <linearGradient id="purple-glow" x1="0%" y1="0%" x2="100%" y2="100%">
      <stop offset="0%" stop-color="#8B5CF6" />
      <stop offset="100%" stop-color="#6D28D9" />
    </linearGradient>
    
    <!-- Glow Filters -->
    <filter id="glow-orange" x="-20%" y="-20%" width="140%" height="140%">
      <feGaussianBlur stdDeviation="8" result="blur" />
      <feComposite in="SourceGraphic" in2="blur" operator="over" />
    </filter>
    <filter id="glow-blue" x="-20%" y="-20%" width="140%" height="140%">
      <feGaussianBlur stdDeviation="8" result="blur" />
      <feComposite in="SourceGraphic" in2="blur" operator="over" />
    </filter>
    
    <!-- Grid Pattern -->
    <pattern id="grid" width="40" height="40" patternUnits="userSpaceOnUse">
      <path d="M 40 0 L 0 0 0 40" fill="none" stroke="rgba(148, 163, 184, 0.05)" stroke-width="1"/>
    </pattern>
  </defs>

  <!-- Background -->
  <rect width="800" height="450" fill="#0F172A" />
  <rect width="800" height="450" fill="url(#grid)" />
  
  <!-- Subtle Soft Glows -->
  <circle cx="80.0" cy="90.0" r="240.0" fill="rgba(0, 163, 224, 0.05)" filter="url(#glow-blue)" />
  <circle cx="720.0" cy="360.0" r="240.0" fill="rgba(255, 153, 0, 0.04)" filter="url(#glow-orange)" />
  
  <!-- Slide Header -->
  <text x="40" y="45" font-family="Inter, system-ui, sans-serif" font-size="20" font-weight="700" fill="#F8FAFC">Continuing Your Learning</text>
<rect x="60" y="250" width="160" height="120" rx="8" fill="url(#dark-card)" stroke="#EF4444" stroke-width="2" /><circle cx="95" cy="285" r="15" fill="#EF4444" /><text x="95" y="290" font-family="Inter" font-size="12" font-weight="700" fill="#000000" text-anchor="middle">1</text><text x="120" y="288" font-family="Inter" font-size="12" font-weight="700" fill="#F8FAFC">Ingest Data</text>
        <g transform="translate(75, 315)">
          <text x="0" y="10" font-family="Inter" font-size="10.5" fill="#94A3B8">Progressing stage</text>
          <text x="0" y="25" font-family="Inter" font-size="10.5" fill="#94A3B8">Active state check</text>
        </g>
        <rect x="230" y="200" width="160" height="120" rx="8" fill="url(#dark-card)" stroke="#FF9900" stroke-width="2" /><circle cx="265" cy="235" r="15" fill="#FF9900" /><text x="265" y="240" font-family="Inter" font-size="12" font-weight="700" fill="#000000" text-anchor="middle">2</text><text x="290" y="238" font-family="Inter" font-size="12" font-weight="700" fill="#F8FAFC">Process Mode</text>
        <g transform="translate(245, 265)">
          <text x="0" y="10" font-family="Inter" font-size="10.5" fill="#94A3B8">Progressing stage</text>
          <text x="0" y="25" font-family="Inter" font-size="10.5" fill="#94A3B8">Active state check</text>
        </g>
        <rect x="400" y="150" width="160" height="120" rx="8" fill="url(#dark-card)" stroke="#00A3E0" stroke-width="2" /><circle cx="435" cy="185" r="15" fill="#00A3E0" /><text x="435" y="190" font-family="Inter" font-size="12" font-weight="700" fill="#000000" text-anchor="middle">3</text><text x="460" y="188" font-family="Inter" font-size="12" font-weight="700" fill="#F8FAFC">Guardrails C</text>
        <g transform="translate(415, 215)">
          <text x="0" y="10" font-family="Inter" font-size="10.5" fill="#94A3B8">Progressing stage</text>
          <text x="0" y="25" font-family="Inter" font-size="10.5" fill="#94A3B8">Active state check</text>
        </g>
        <rect x="570" y="100" width="160" height="120" rx="8" fill="url(#dark-card)" stroke="#10B981" stroke-width="2" /><circle cx="605" cy="135" r="15" fill="#10B981" /><text x="605" y="140" font-family="Inter" font-size="12" font-weight="700" fill="#000000" text-anchor="middle">4</text><text x="630" y="138" font-family="Inter" font-size="12" font-weight="700" fill="#F8FAFC">Secure Outpu</text>
        <g transform="translate(585, 165)">
          <text x="0" y="10" font-family="Inter" font-size="10.5" fill="#94A3B8">Progressing stage</text>
          <text x="0" y="25" font-family="Inter" font-size="10.5" fill="#94A3B8">Active state check</text>
        </g>
          <line x1="220" y1="240" x2="230" y2="240" stroke="#FF9900" stroke-width="2"  />
  <path d="M 230 240 L 223.0717967697245 244.0 L 223.0717967697245 236.0 Z" fill="#FF9900" />
  
    <line x1="390" y1="190" x2="400" y2="190" stroke="#00A3E0" stroke-width="2"  />
  <path d="M 400 190 L 393.0717967697245 194.0 L 393.0717967697245 186.0 Z" fill="#00A3E0" />
  
    <line x1="560" y1="140" x2="570" y2="140" stroke="#10B981" stroke-width="2"  />
  <path d="M 570 140 L 563.0717967697245 144.0 L 563.0717967697245 136.0 Z" fill="#10B981" />
  
  
  <rect x="60" y="380" width="680" height="45" rx="8" fill="rgba(30,41,59,0.3)" stroke="#1E293B" stroke-width="1" />
  <text x="80" y="407" font-family="Inter" font-size="11" fill="#94A3B8">A learning path roadmap staircase. Starts at Foundational (CCP/AIF), rises to Associate (ML Engineer / So...</text>
</svg>