<svg xmlns="http://www.w3.org/2000/svg" viewBox="0 0 800 450" width="100%" height="100%">
  <defs>
    <!-- Gradients -->
    <linearGradient id="aws-orange" x1="0%" y1="0%" x2="100%" y2="100%">
      <stop offset="0%" stop-color="#FF9900" />
      <stop offset="100%" stop-color="#FFC400" />
    </linearGradient>
    <linearGradient id="cloud-blue" x1="0%" y1="0%" x2="100%" y2="100%">
      <stop offset="0%" stop-color="#00A3E0" />
      <stop offset="100%" stop-color="#1D70B8" />
    </linearGradient>
    <linearGradient id="success-green" x1="0%" y1="0%" x2="100%" y2="100%">
      <stop offset="0%" stop-color="#10B981" />
      <stop offset="100%" stop-color="#059669" />
    </linearGradient>
    <linearGradient id="alert-red" x1="0%" y1="0%" x2="100%" y2="100%">
      <stop offset="0%" stop-color="#EF4444" />
      <stop offset="100%" stop-color="#DC2626" />
    </linearGradient>
    <linearGradient id="warning-gold" x1="0%" y1="0%" x2="100%" y2="100%">
      <stop offset="0%" stop-color="#F59E0B" />
      <stop offset="100%" stop-color="#D97706" />
    </linearGradient>
    <linearGradient id="dark-card" x1="0%" y1="0%" x2="0%" y2="100%">
      <stop offset="0%" stop-color="#1E293B" />
      <stop offset="100%" stop-color="#0F172A" />
    </linearGradient>
    <linearGradient id="purple-glow" x1="0%" y1="0%" x2="100%" y2="100%">
      <stop offset="0%" stop-color="#8B5CF6" />
      <stop offset="100%" stop-color="#6D28D9" />
    </linearGradient>
    
    <!-- Glow Filters -->
    <filter id="glow-orange" x="-20%" y="-20%" width="140%" height="140%">
      <feGaussianBlur stdDeviation="8" result="blur" />
      <feComposite in="SourceGraphic" in2="blur" operator="over" />
    </filter>
    <filter id="glow-blue" x="-20%" y="-20%" width="140%" height="140%">
      <feGaussianBlur stdDeviation="8" result="blur" />
      <feComposite in="SourceGraphic" in2="blur" operator="over" />
    </filter>
    
    <!-- Grid Pattern -->
    <pattern id="grid" width="40" height="40" patternUnits="userSpaceOnUse">
      <path d="M 40 0 L 0 0 0 40" fill="none" stroke="rgba(148, 163, 184, 0.05)" stroke-width="1"/>
    </pattern>
  </defs>

  <!-- Background -->
  <rect width="800" height="450" fill="#0F172A" />
  <rect width="800" height="450" fill="url(#grid)" />
  
  <!-- Subtle Soft Glows -->
  <circle cx="80.0" cy="90.0" r="240.0" fill="rgba(0, 163, 224, 0.05)" filter="url(#glow-blue)" />
  <circle cx="720.0" cy="360.0" r="240.0" fill="rgba(255, 153, 0, 0.04)" filter="url(#glow-orange)" />
  
  <!-- Slide Header -->
  <text x="40" y="45" font-family="Inter, system-ui, sans-serif" font-size="20" font-weight="700" fill="#F8FAFC">AWS Pre-built AI Services: Language &amp; Business Applications</text>
<circle cx="400" cy="210" r="60" fill="url(#dark-card)" stroke="#8B5CF6" stroke-width="2" />  <g transform="translate(390,180)">
    <circle cx="10" cy="7" r="5" fill="none" stroke="#8B5CF6" stroke-width="1.5"/>
    <path d="M 2 19 C 2 14, 18 14, 18 19" fill="none" stroke="#8B5CF6" stroke-width="1.5"/>
  </g><text x="400" y="255" font-family="Inter" font-size="11.5" font-weight="700" fill="#8B5CF6" text-anchor="middle">HUMAN REVIEW</text>  <rect x="120" y="155" width="150" height="110" rx="12" fill="url(#dark-card)" stroke="#1E293B" stroke-width="1.5" />
  <text x="140" y="190" font-family="Inter, system-ui, sans-serif" font-size="14" font-weight="600" fill="#F8FAFC">1. Prediction</text>
  <text x="140" y="210" font-family="Inter, system-ui, sans-serif" font-size="11" fill="#94A3B8">Model Run Inference</text>
  <g transform="translate(180,210)">
    <rect x="0" y="0" width="24" height="10" rx="1.5" fill="none" stroke="#FF9900" stroke-width="1.5"/>
    <circle cx="4" cy="5" r="1" fill="#FF9900"/>
    <line x1="8" y1="5" x2="20" y2="5" stroke="#FF9900" stroke-width="1.5"/>
    
    <rect x="0" y="12" width="24" height="10" rx="1.5" fill="none" stroke="#FF9900" stroke-width="1.5"/>
    <circle cx="4" cy="17" r="1" fill="#FF9900"/>
    <line x1="8" y1="17" x2="20" y2="17" stroke="#FF9900" stroke-width="1.5"/>
  </g>  <rect x="530" y="90" width="160" height="110" rx="12" fill="url(#dark-card)" stroke="#1E293B" stroke-width="1.5" />
  <text x="550" y="125" font-family="Inter, system-ui, sans-serif" font-size="14" font-weight="600" fill="#F8FAFC">2. Routing Logic</text>
  <text x="550" y="145" font-family="Inter, system-ui, sans-serif" font-size="11" fill="#94A3B8">Filter exceptions</text>
  <g transform="translate(598,140)">
    <path d="M 0 0 L 10 0 C 10 0, 20 6, 20 14 C 20 20, 10 24, 10 24 C 10 24, 0 20, 0 14 Z" fill="none" stroke="#00A3E0" stroke-width="1.5"/>
  </g>  <rect x="530" y="220" width="160" height="110" rx="12" fill="url(#dark-card)" stroke="#1E293B" stroke-width="1.5" />
  <text x="550" y="255" font-family="Inter, system-ui, sans-serif" font-size="14" font-weight="600" fill="#F8FAFC">3. Ground Truth</text>
  <text x="550" y="275" font-family="Inter, system-ui, sans-serif" font-size="11" fill="#94A3B8">Feedback curation</text>
  <g transform="translate(598,270)">
    <path d="M 0 6 C 0 1, 20 1, 20 6 C 20 11, 0 11, 0 6 Z" fill="none" stroke="#10B981" stroke-width="1.5"/>
    <path d="M 0 6 L 0 12 C 0 17, 20 17, 20 12 L 20 6" fill="none" stroke="#10B981" stroke-width="1.5"/>
    <path d="M 0 12 L 0 18 C 0 23, 20 23, 20 18 L 20 12" fill="none" stroke="#10B981" stroke-width="1.5"/>
  </g>  <line x1="270" y1="210" x2="340" y2="210" stroke="#00A3E0" stroke-width="2"  />
  <path d="M 340 210 L 333.0717967697245 214.0 L 333.0717967697245 206.0 Z" fill="#00A3E0" />
  <text x="305.0" y="202.0" font-family="Inter, system-ui, sans-serif" font-size="10" fill="#94A3B8" text-anchor="middle">Inference</text>
    <line x1="460" y1="180" x2="530" y2="150" stroke="#8B5CF6" stroke-width="2"  />
  <path d="M 530 150 L 525.2076536282539 156.4057330769563 L 522.0562992396206 149.05257283681183 Z" fill="#8B5CF6" />
  <text x="495.0" y="157.0" font-family="Inter, system-ui, sans-serif" font-size="10" fill="#94A3B8" text-anchor="middle">Audit</text>
    <line x1="460" y1="240" x2="530" y2="270" stroke="#10B981" stroke-width="2"  />
  <path d="M 530 270 L 522.0562992396206 270.9474271631882 L 525.2076536282539 263.59426692304373 Z" fill="#10B981" />
  <text x="495.0" y="247.0" font-family="Inter, system-ui, sans-serif" font-size="10" fill="#94A3B8" text-anchor="middle">Train</text>
  
  <rect x="60" y="370" width="680" height="55" rx="8" fill="rgba(30,41,59,0.3)" stroke="#1E293B" stroke-width="1" />
  <text x="80" y="402" font-family="Inter" font-size="11.5" fill="#94A3B8">A customer workflow. A user queries a chatbot interface (Transcribe -&gt; Lex -&gt; Kendra -&gt; Polly), while beh...</text>
</svg>