<svg xmlns="http://www.w3.org/2000/svg" viewBox="0 0 800 450" width="100%" height="100%">
  <defs>
    <!-- Gradients -->
    <linearGradient id="aws-orange" x1="0%" y1="0%" x2="100%" y2="100%">
      <stop offset="0%" stop-color="#FF9900" />
      <stop offset="100%" stop-color="#FFC400" />
    </linearGradient>
    <linearGradient id="cloud-blue" x1="0%" y1="0%" x2="100%" y2="100%">
      <stop offset="0%" stop-color="#00A3E0" />
      <stop offset="100%" stop-color="#1D70B8" />
    </linearGradient>
    <linearGradient id="success-green" x1="0%" y1="0%" x2="100%" y2="100%">
      <stop offset="0%" stop-color="#10B981" />
      <stop offset="100%" stop-color="#059669" />
    </linearGradient>
    <linearGradient id="alert-red" x1="0%" y1="0%" x2="100%" y2="100%">
      <stop offset="0%" stop-color="#EF4444" />
      <stop offset="100%" stop-color="#DC2626" />
    </linearGradient>
    <linearGradient id="warning-gold" x1="0%" y1="0%" x2="100%" y2="100%">
      <stop offset="0%" stop-color="#F59E0B" />
      <stop offset="100%" stop-color="#D97706" />
    </linearGradient>
    <linearGradient id="dark-card" x1="0%" y1="0%" x2="0%" y2="100%">
      <stop offset="0%" stop-color="#1E293B" />
      <stop offset="100%" stop-color="#0F172A" />
    </linearGradient>
    <linearGradient id="purple-glow" x1="0%" y1="0%" x2="100%" y2="100%">
      <stop offset="0%" stop-color="#8B5CF6" />
      <stop offset="100%" stop-color="#6D28D9" />
    </linearGradient>
    
    <!-- Glow Filters -->
    <filter id="glow-orange" x="-20%" y="-20%" width="140%" height="140%">
      <feGaussianBlur stdDeviation="8" result="blur" />
      <feComposite in="SourceGraphic" in2="blur" operator="over" />
    </filter>
    <filter id="glow-blue" x="-20%" y="-20%" width="140%" height="140%">
      <feGaussianBlur stdDeviation="8" result="blur" />
      <feComposite in="SourceGraphic" in2="blur" operator="over" />
    </filter>
    
    <!-- Grid Pattern -->
    <pattern id="grid" width="40" height="40" patternUnits="userSpaceOnUse">
      <path d="M 40 0 L 0 0 0 40" fill="none" stroke="rgba(148, 163, 184, 0.05)" stroke-width="1"/>
    </pattern>
  </defs>

  <!-- Background -->
  <rect width="800" height="450" fill="#0F172A" />
  <rect width="800" height="450" fill="url(#grid)" />
  
  <!-- Subtle Soft Glows -->
  <circle cx="80.0" cy="90.0" r="240.0" fill="rgba(0, 163, 224, 0.05)" filter="url(#glow-blue)" />
  <circle cx="720.0" cy="360.0" r="240.0" fill="rgba(255, 153, 0, 0.04)" filter="url(#glow-orange)" />
  
  <!-- Slide Header -->
  <text x="40" y="45" font-family="Inter, system-ui, sans-serif" font-size="20" font-weight="700" fill="#F8FAFC">Workforce Access: AWS IAM Identity Center</text>
  <rect x="60" y="100" width="680" height="250" rx="16" fill="rgba(0,163,224,0.01)" stroke="#00A3E0" stroke-width="1.5" />
  <text x="80" y="135" font-family="Inter, system-ui, sans-serif" font-size="14" font-weight="600" fill="#F8FAFC">Security Control Boundary</text>
  <text x="80" y="155" font-family="Inter, system-ui, sans-serif" font-size="11" fill="#94A3B8">System Permissions</text>
  <rect x="90" y="160" width="300" height="160" rx="12" fill="rgba(148,163,184,0.02)" stroke="#475569" stroke-width="1.5" />
  <text x="110" y="195" font-family="Inter, system-ui, sans-serif" font-size="14" font-weight="600" fill="#F8FAFC">Resource Layer</text>
  <text x="110" y="215" font-family="Inter, system-ui, sans-serif" font-size="11" fill="#94A3B8">Encrypted / Authorized</text>
  <g transform="translate(140,220)">
    <rect x="0" y="0" width="24" height="10" rx="1.5" fill="none" stroke="#FF9900" stroke-width="1.5"/>
    <circle cx="4" cy="5" r="1" fill="#FF9900"/>
    <line x1="8" y1="5" x2="20" y2="5" stroke="#FF9900" stroke-width="1.5"/>
    
    <rect x="0" y="12" width="24" height="10" rx="1.5" fill="none" stroke="#FF9900" stroke-width="1.5"/>
    <circle cx="4" cy="17" r="1" fill="#FF9900"/>
    <line x1="8" y1="17" x2="20" y2="17" stroke="#FF9900" stroke-width="1.5"/>
  </g><text x="210" y="240" font-family="Inter" font-size="12" fill="#F8FAFC">IAM Authorized Role</text><g transform="translate(420, 170)"><rect width="50" height="140" rx="4" fill="#EF4444" stroke="#DC2626" stroke-width="1.5" /><line x1="0" y1="35" x2="50" y2="35" stroke="#F8FAFC" stroke-width="1" /><line x1="0" y1="70" x2="50" y2="70" stroke="#F8FAFC" stroke-width="1" /><line x1="0" y1="105" x2="50" y2="105" stroke="#F8FAFC" stroke-width="1" /><text x="25" y="-12" font-family="Inter" font-size="10.5" fill="#EF4444" font-weight="700" text-anchor="middle">FIREWALL</text></g>  <rect x="500" y="160" width="210" height="160" rx="12" fill="url(#dark-card)" stroke="#1E293B" stroke-width="1.5" />
  <text x="520" y="195" font-family="Inter, system-ui, sans-serif" font-size="14" font-weight="600" fill="#F8FAFC">Secure Target</text>
  <text x="520" y="215" font-family="Inter, system-ui, sans-serif" font-size="11" fill="#94A3B8">Verified Endpoint</text>
  <g transform="translate(585,220)">
    <path d="M 0 0 L 10 0 C 10 0, 20 6, 20 14 C 20 20, 10 24, 10 24 C 10 24, 0 20, 0 14 Z" fill="none" stroke="#10B981" stroke-width="1.5"/>
  </g>  <line x1="390" y1="240" x2="420" y2="240" stroke="#FF9900" stroke-width="2"  />
  <path d="M 420 240 L 413.0717967697245 244.0 L 413.0717967697245 236.0 Z" fill="#FF9900" />
  
    <line x1="470" y1="240" x2="500" y2="240" stroke="#10B981" stroke-width="2"  />
  <path d="M 500 240 L 493.0717967697245 244.0 L 493.0717967697245 236.0 Z" fill="#10B981" />
  <text x="485.0" y="232.0" font-family="Inter, system-ui, sans-serif" font-size="10" fill="#94A3B8" text-anchor="middle">Encrypt Tunnel</text>
  
  <rect x="60" y="370" width="680" height="55" rx="8" fill="rgba(30,41,59,0.3)" stroke="#1E293B" stroke-width="1" />
  <text x="80" y="402" font-family="Inter" font-size="11.5" fill="#94A3B8">A central identity portal. A corporate user logs in once, receives a temporary key token, and gets single...</text>
</svg>