<svg xmlns="http://www.w3.org/2000/svg" viewBox="0 0 800 450" width="100%" height="100%">
  <defs>
    <!-- Gradients -->
    <linearGradient id="aws-orange" x1="0%" y1="0%" x2="100%" y2="100%">
      <stop offset="0%" stop-color="#FF9900" />
      <stop offset="100%" stop-color="#FFC400" />
    </linearGradient>
    <linearGradient id="cloud-blue" x1="0%" y1="0%" x2="100%" y2="100%">
      <stop offset="0%" stop-color="#00A3E0" />
      <stop offset="100%" stop-color="#1D70B8" />
    </linearGradient>
    <linearGradient id="success-green" x1="0%" y1="0%" x2="100%" y2="100%">
      <stop offset="0%" stop-color="#10B981" />
      <stop offset="100%" stop-color="#059669" />
    </linearGradient>
    <linearGradient id="alert-red" x1="0%" y1="0%" x2="100%" y2="100%">
      <stop offset="0%" stop-color="#EF4444" />
      <stop offset="100%" stop-color="#DC2626" />
    </linearGradient>
    <linearGradient id="warning-gold" x1="0%" y1="0%" x2="100%" y2="100%">
      <stop offset="0%" stop-color="#F59E0B" />
      <stop offset="100%" stop-color="#D97706" />
    </linearGradient>
    <linearGradient id="dark-card" x1="0%" y1="0%" x2="0%" y2="100%">
      <stop offset="0%" stop-color="#1E293B" />
      <stop offset="100%" stop-color="#0F172A" />
    </linearGradient>
    
    <!-- Glow Filters -->
    <filter id="glow-orange" x="-20%" y="-20%" width="140%" height="140%">
      <feGaussianBlur stdDeviation="8" result="blur" />
      <feComposite in="SourceGraphic" in2="blur" operator="over" />
    </filter>
    <filter id="glow-blue" x="-20%" y="-20%" width="140%" height="140%">
      <feGaussianBlur stdDeviation="8" result="blur" />
      <feComposite in="SourceGraphic" in2="blur" operator="over" />
    </filter>
    
    <!-- Grid Pattern -->
    <pattern id="grid" width="40" height="40" patternUnits="userSpaceOnUse">
      <path d="M 40 0 L 0 0 0 40" fill="none" stroke="rgba(148, 163, 184, 0.05)" stroke-width="1"/>
    </pattern>
  </defs>

  <!-- Background -->
  <rect width="800" height="450" fill="#0F172A" />
  <rect width="800" height="450" fill="url(#grid)" />
  
  <!-- Slide Header (If provided) -->
  <text x="40" y="45" font-family="Inter, system-ui, sans-serif" font-size="20" font-weight="700" fill="#F8FAFC">Migration Workflow</text>
  <rect x="40" y="160" width="180" height="130" rx="12" fill="url(#dark-card)" stroke="#1E293B" stroke-width="1.5" />
  <text x="60" y="195" font-family="Inter, system-ui, sans-serif" font-size="15" font-weight="600" fill="#F8FAFC">On-Premises</text>
  <text x="60" y="215" font-family="Inter, system-ui, sans-serif" font-size="12" fill="#94A3B8">Server Assets</text>
  <g transform="translate(115,230)">
    <rect x="0" y="0" width="30" height="12" rx="2" fill="none" stroke="url(#cloud-blue)" stroke-width="2"/>
    <circle cx="5" cy="6" r="1.5" fill="url(#cloud-blue)"/>
    <line x1="12" y1="6" x2="25" y2="6" stroke="url(#cloud-blue)" stroke-width="2"/>
    
    <rect x="0" y="16" width="30" height="12" rx="2" fill="none" stroke="url(#cloud-blue)" stroke-width="2"/>
    <circle cx="5" cy="22" r="1.5" fill="url(#cloud-blue)"/>
    <line x1="12" y1="22" x2="25" y2="22" stroke="url(#cloud-blue)" stroke-width="2"/>
  </g>  <rect x="290" y="160" width="200" height="130" rx="12" fill="url(#dark-card)" stroke="#1E293B" stroke-width="1.5" />
  <text x="310" y="195" font-family="Inter, system-ui, sans-serif" font-size="15" font-weight="600" fill="#F8FAFC">Migration Evaluator</text>
  <text x="310" y="215" font-family="Inter, system-ui, sans-serif" font-size="12" fill="#94A3B8">Builds business case</text>
  <g transform="translate(370,220)">
    <path d="M 5 15 A 8 8 0 0 1 18 8 A 10 10 0 0 1 36 12 A 7 7 0 0 1 38 22 L 8 22 A 6 6 0 0 1 5 15 Z" fill="none" stroke="url(#cloud-blue)" stroke-width="2"/>
  </g>  <rect x="560" y="160" width="200" height="130" rx="12" fill="url(#dark-card)" stroke="#1E293B" stroke-width="1.5" />
  <text x="580" y="195" font-family="Inter, system-ui, sans-serif" font-size="15" font-weight="600" fill="#F8FAFC">Application Migration</text>
  <text x="580" y="215" font-family="Inter, system-ui, sans-serif" font-size="12" fill="#94A3B8">AWS MGN (Rehost)</text>
  <g transform="translate(638,222)">
    <path d="M 9 24 A 8 8 0 0 1 11 9 A 11 11 0 0 1 32 11 A 7 7 0 0 1 33 24 Z" fill="none" stroke="#10B981" stroke-width="2" stroke-linejoin="round"/>
    <line x1="21" y1="36" x2="21" y2="20" stroke="#10B981" stroke-width="2" stroke-linecap="round"/>
    <path d="M 16 25 L 21 19 L 26 25" fill="none" stroke="#10B981" stroke-width="2" stroke-linecap="round" stroke-linejoin="round"/>
  </g>  <line x1="220" y1="225" x2="290" y2="225" stroke="url(#aws-orange)" stroke-width="2"  />
  <path d="M 290 225 L 283.0717967697245 229.0 L 283.0717967697245 221.0 Z" fill="url(#aws-orange)" />
  
  <line x1="490" y1="225" x2="560" y2="225" stroke="url(#aws-orange)" stroke-width="2"  />
  <path d="M 560 225 L 553.0717967697245 229.0 L 553.0717967697245 221.0 Z" fill="url(#aws-orange)" />
  
</svg>