<svg xmlns="http://www.w3.org/2000/svg" viewBox="0 0 800 450" width="100%" height="100%">
  <defs>
    <!-- Gradients -->
    <linearGradient id="aws-orange" x1="0%" y1="0%" x2="100%" y2="100%">
      <stop offset="0%" stop-color="#FF9900" />
      <stop offset="100%" stop-color="#FFC400" />
    </linearGradient>
    <linearGradient id="cloud-blue" x1="0%" y1="0%" x2="100%" y2="100%">
      <stop offset="0%" stop-color="#00A3E0" />
      <stop offset="100%" stop-color="#1D70B8" />
    </linearGradient>
    <linearGradient id="success-green" x1="0%" y1="0%" x2="100%" y2="100%">
      <stop offset="0%" stop-color="#10B981" />
      <stop offset="100%" stop-color="#059669" />
    </linearGradient>
    <linearGradient id="alert-red" x1="0%" y1="0%" x2="100%" y2="100%">
      <stop offset="0%" stop-color="#EF4444" />
      <stop offset="100%" stop-color="#DC2626" />
    </linearGradient>
    <linearGradient id="warning-gold" x1="0%" y1="0%" x2="100%" y2="100%">
      <stop offset="0%" stop-color="#F59E0B" />
      <stop offset="100%" stop-color="#D97706" />
    </linearGradient>
    <linearGradient id="dark-card" x1="0%" y1="0%" x2="0%" y2="100%">
      <stop offset="0%" stop-color="#1E293B" />
      <stop offset="100%" stop-color="#0F172A" />
    </linearGradient>
    
    <!-- Glow Filters -->
    <filter id="glow-orange" x="-20%" y="-20%" width="140%" height="140%">
      <feGaussianBlur stdDeviation="8" result="blur" />
      <feComposite in="SourceGraphic" in2="blur" operator="over" />
    </filter>
    <filter id="glow-blue" x="-20%" y="-20%" width="140%" height="140%">
      <feGaussianBlur stdDeviation="8" result="blur" />
      <feComposite in="SourceGraphic" in2="blur" operator="over" />
    </filter>
    
    <!-- Grid Pattern -->
    <pattern id="grid" width="40" height="40" patternUnits="userSpaceOnUse">
      <path d="M 40 0 L 0 0 0 40" fill="none" stroke="rgba(148, 163, 184, 0.05)" stroke-width="1"/>
    </pattern>
  </defs>

  <!-- Background -->
  <rect width="800" height="450" fill="#0F172A" />
  <rect width="800" height="450" fill="url(#grid)" />
  
  <!-- Subtle Soft Glows -->
  <circle cx="80.0" cy="90.0" r="240.0" fill="rgba(0, 163, 224, 0.05)" filter="url(#glow-blue)" />
  <circle cx="720.0" cy="360.0" r="240.0" fill="rgba(255, 153, 0, 0.04)" filter="url(#glow-orange)" />
  
  <!-- Slide Header (If provided) -->
  <text x="40" y="45" font-family="Inter, system-ui, sans-serif" font-size="20" font-weight="700" fill="#F8FAFC">What is Cloud Computing?</text>
  <rect x="60" y="140" width="200" height="200" rx="12" fill="url(#dark-card)" stroke="#1E293B" stroke-width="1.5" />
  <text x="80" y="175" font-family="Inter, system-ui, sans-serif" font-size="15" font-weight="600" fill="#F8FAFC">On-Premises User</text>
  <text x="80" y="195" font-family="Inter, system-ui, sans-serif" font-size="12" fill="#94A3B8">Requests via Internet</text>
  <g transform="translate(145,230)">
    <circle cx="10" cy="8" r="6" fill="none" stroke="#F8FAFC" stroke-width="2"/>
    <path d="M 0 22 C 0 16, 20 16, 20 22" fill="none" stroke="#F8FAFC" stroke-width="2"/>
  </g>  <rect x="500" y="100" width="240" height="280" rx="12" fill="rgba(0,163,224,0.03)" stroke="#00A3E0" stroke-width="1.5" />
  <text x="520" y="135" font-family="Inter, system-ui, sans-serif" font-size="15" font-weight="600" fill="#F8FAFC">AWS Cloud Pool</text>
  <text x="520" y="155" font-family="Inter, system-ui, sans-serif" font-size="12" fill="#94A3B8">Shared Elastic Resources</text>
  <g transform="translate(600,160)">
    <path d="M 5 15 A 8 8 0 0 1 18 8 A 10 10 0 0 1 36 12 A 7 7 0 0 1 38 22 L 8 22 A 6 6 0 0 1 5 15 Z" fill="none" stroke="url(#cloud-blue)" stroke-width="2"/>
  </g>  <g transform="translate(530,230)">
    <rect x="0" y="0" width="30" height="12" rx="2" fill="none" stroke="url(#cloud-blue)" stroke-width="2"/>
    <circle cx="5" cy="6" r="1.5" fill="url(#cloud-blue)"/>
    <line x1="12" y1="6" x2="25" y2="6" stroke="url(#cloud-blue)" stroke-width="2"/>
    
    <rect x="0" y="16" width="30" height="12" rx="2" fill="none" stroke="url(#cloud-blue)" stroke-width="2"/>
    <circle cx="5" cy="22" r="1.5" fill="url(#cloud-blue)"/>
    <line x1="12" y1="22" x2="25" y2="22" stroke="url(#cloud-blue)" stroke-width="2"/>
  </g>  <g transform="translate(680,230)">
    <path d="M 0 8 C 0 2, 24 2, 24 8 C 24 14, 0 14, 0 8 Z" fill="none" stroke="url(#aws-orange)" stroke-width="2"/>
    <path d="M 0 8 L 0 16 C 0 22, 24 22, 24 16 L 24 8" fill="none" stroke="url(#aws-orange)" stroke-width="2"/>
    <path d="M 0 16 L 0 24 C 0 30, 24 30, 24 24 L 24 16" fill="none" stroke="url(#aws-orange)" stroke-width="2"/>
  </g>  <rect x="530" y="290" width="180" height="60" rx="12" fill="rgba(255, 153, 0, 0.05)" stroke="#FF9900" stroke-width="1.5" />
  <text x="550" y="314.0" font-family="Inter, system-ui, sans-serif" font-size="15" font-weight="600" fill="#F8FAFC">Billing: Active</text>
  <text x="550" y="334.0" font-family="Inter, system-ui, sans-serif" font-size="12" fill="#94A3B8">Rate: $0.0024/hr</text>
  <line x1="260" y1="240" x2="500" y2="240" stroke="#FF9900" stroke-width="2"  />
  <path d="M 500 240 L 493.0717967697245 244.0 L 493.0717967697245 236.0 Z" fill="#FF9900" />
  <text x="380.0" y="232.0" font-family="Inter, system-ui, sans-serif" font-size="11" fill="#94A3B8" text-anchor="middle">On-Demand API Call</text>
</svg>