<svg xmlns="http://www.w3.org/2000/svg" viewBox="0 0 800 450" width="100%" height="100%">
  <defs>
    <!-- Gradients -->
    <linearGradient id="aws-orange" x1="0%" y1="0%" x2="100%" y2="100%">
      <stop offset="0%" stop-color="#FF9900" />
      <stop offset="100%" stop-color="#FFC400" />
    </linearGradient>
    <linearGradient id="cloud-blue" x1="0%" y1="0%" x2="100%" y2="100%">
      <stop offset="0%" stop-color="#00A3E0" />
      <stop offset="100%" stop-color="#1D70B8" />
    </linearGradient>
    <linearGradient id="success-green" x1="0%" y1="0%" x2="100%" y2="100%">
      <stop offset="0%" stop-color="#10B981" />
      <stop offset="100%" stop-color="#059669" />
    </linearGradient>
    <linearGradient id="alert-red" x1="0%" y1="0%" x2="100%" y2="100%">
      <stop offset="0%" stop-color="#EF4444" />
      <stop offset="100%" stop-color="#DC2626" />
    </linearGradient>
    <linearGradient id="warning-gold" x1="0%" y1="0%" x2="100%" y2="100%">
      <stop offset="0%" stop-color="#F59E0B" />
      <stop offset="100%" stop-color="#D97706" />
    </linearGradient>
    <linearGradient id="dark-card" x1="0%" y1="0%" x2="0%" y2="100%">
      <stop offset="0%" stop-color="#1E293B" />
      <stop offset="100%" stop-color="#0F172A" />
    </linearGradient>
    
    <!-- Glow Filters -->
    <filter id="glow-orange" x="-20%" y="-20%" width="140%" height="140%">
      <feGaussianBlur stdDeviation="8" result="blur" />
      <feComposite in="SourceGraphic" in2="blur" operator="over" />
    </filter>
    <filter id="glow-blue" x="-20%" y="-20%" width="140%" height="140%">
      <feGaussianBlur stdDeviation="8" result="blur" />
      <feComposite in="SourceGraphic" in2="blur" operator="over" />
    </filter>
    
    <!-- Grid Pattern -->
    <pattern id="grid" width="40" height="40" patternUnits="userSpaceOnUse">
      <path d="M 40 0 L 0 0 0 40" fill="none" stroke="rgba(148, 163, 184, 0.05)" stroke-width="1"/>
    </pattern>
  </defs>

  <!-- Background -->
  <rect width="800" height="450" fill="#0F172A" />
  <rect width="800" height="450" fill="url(#grid)" />
  
  <!-- Subtle Soft Glows -->
  <circle cx="80.0" cy="90.0" r="240.0" fill="rgba(0, 163, 224, 0.05)" filter="url(#glow-blue)" />
  <circle cx="720.0" cy="360.0" r="240.0" fill="rgba(255, 153, 0, 0.04)" filter="url(#glow-orange)" />
  
  <!-- Slide Header (If provided) -->
  <text x="40" y="45" font-family="Inter, system-ui, sans-serif" font-size="20" font-weight="700" fill="#F8FAFC">Central Security Posture Hub</text>
  <rect x="290" y="150" width="220" height="140" rx="12" fill="rgba(16,185,129,0.04)" stroke="#10B981" stroke-width="1.5" />
  <text x="310" y="185" font-family="Inter, system-ui, sans-serif" font-size="15" font-weight="600" fill="#F8FAFC">AWS Security Hub</text>
  <text x="310" y="205" font-family="Inter, system-ui, sans-serif" font-size="12" fill="#94A3B8">Consolidated Compliance Dashboard</text>
  <g transform="translate(385,210)">
    <path d="M 0 0 L 12 0 C 12 0, 24 8, 24 18 C 24 26, 12 32, 12 32 C 12 32, 0 26, 0 18 Z" fill="none" stroke="#10B981" stroke-width="2"/>
  </g>  <rect x="50" y="60" width="180" height="70" rx="12" fill="url(#dark-card)" stroke="#1E293B" stroke-width="1.5" />
  <text x="70" y="95" font-family="Inter, system-ui, sans-serif" font-size="15" font-weight="600" fill="#F8FAFC">GuardDuty Alerts</text>
  
  <rect x="50" y="170" width="180" height="70" rx="12" fill="url(#dark-card)" stroke="#1E293B" stroke-width="1.5" />
  <text x="70" y="205" font-family="Inter, system-ui, sans-serif" font-size="15" font-weight="600" fill="#F8FAFC">Inspector Findings</text>
  
  <rect x="50" y="280" width="180" height="70" rx="12" fill="url(#dark-card)" stroke="#1E293B" stroke-width="1.5" />
  <text x="70" y="315" font-family="Inter, system-ui, sans-serif" font-size="15" font-weight="600" fill="#F8FAFC">Macie PII Alerts</text>
  
  <rect x="570" y="170" width="180" height="80" rx="12" fill="url(#dark-card)" stroke="#1E293B" stroke-width="1.5" />
  <text x="590" y="205" font-family="Inter, system-ui, sans-serif" font-size="15" font-weight="600" fill="#F8FAFC">Compliance Reports</text>
  
  <line x1="230" y1="95" x2="290" y2="160" stroke="url(#aws-orange)" stroke-width="2"  />
  <path d="M 290 160 L 282.3615238227032 157.62225281224653 L 288.2399513797231 152.196011990382 Z" fill="url(#aws-orange)" />
  
  <line x1="230" y1="205" x2="290" y2="205" stroke="url(#aws-orange)" stroke-width="2"  />
  <path d="M 290 205 L 283.0717967697245 209.0 L 283.0717967697245 201.0 Z" fill="url(#aws-orange)" />
  
  <line x1="230" y1="315" x2="290" y2="255" stroke="url(#aws-orange)" stroke-width="2"  />
  <path d="M 290 255 L 287.92944763917984 262.7274066103125 L 282.2725933896875 257.07055236082016 Z" fill="url(#aws-orange)" />
  
  <line x1="510" y1="210" x2="570" y2="210" stroke="#10B981" stroke-width="2"  />
  <path d="M 570 210 L 563.0717967697245 214.0 L 563.0717967697245 206.0 Z" fill="#10B981" />
  
</svg>