<svg xmlns="http://www.w3.org/2000/svg" viewBox="0 0 800 450" width="100%" height="100%">
  <defs>
    <!-- Gradients -->
    <linearGradient id="aws-orange" x1="0%" y1="0%" x2="100%" y2="100%">
      <stop offset="0%" stop-color="#FF9900" />
      <stop offset="100%" stop-color="#FFC400" />
    </linearGradient>
    <linearGradient id="cloud-blue" x1="0%" y1="0%" x2="100%" y2="100%">
      <stop offset="0%" stop-color="#00A3E0" />
      <stop offset="100%" stop-color="#1D70B8" />
    </linearGradient>
    <linearGradient id="success-green" x1="0%" y1="0%" x2="100%" y2="100%">
      <stop offset="0%" stop-color="#10B981" />
      <stop offset="100%" stop-color="#059669" />
    </linearGradient>
    <linearGradient id="alert-red" x1="0%" y1="0%" x2="100%" y2="100%">
      <stop offset="0%" stop-color="#EF4444" />
      <stop offset="100%" stop-color="#DC2626" />
    </linearGradient>
    <linearGradient id="warning-gold" x1="0%" y1="0%" x2="100%" y2="100%">
      <stop offset="0%" stop-color="#F59E0B" />
      <stop offset="100%" stop-color="#D97706" />
    </linearGradient>
    <linearGradient id="dark-card" x1="0%" y1="0%" x2="0%" y2="100%">
      <stop offset="0%" stop-color="#1E293B" />
      <stop offset="100%" stop-color="#0F172A" />
    </linearGradient>
    
    <!-- Glow Filters -->
    <filter id="glow-orange" x="-20%" y="-20%" width="140%" height="140%">
      <feGaussianBlur stdDeviation="8" result="blur" />
      <feComposite in="SourceGraphic" in2="blur" operator="over" />
    </filter>
    <filter id="glow-blue" x="-20%" y="-20%" width="140%" height="140%">
      <feGaussianBlur stdDeviation="8" result="blur" />
      <feComposite in="SourceGraphic" in2="blur" operator="over" />
    </filter>
    
    <!-- Grid Pattern -->
    <pattern id="grid" width="40" height="40" patternUnits="userSpaceOnUse">
      <path d="M 40 0 L 0 0 0 40" fill="none" stroke="rgba(148, 163, 184, 0.05)" stroke-width="1"/>
    </pattern>
  </defs>

  <!-- Background -->
  <rect width="800" height="450" fill="#0F172A" />
  <rect width="800" height="450" fill="url(#grid)" />
  
  <!-- Slide Header (If provided) -->
  <text x="40" y="45" font-family="Inter, system-ui, sans-serif" font-size="20" font-weight="700" fill="#F8FAFC">Go Global in Minutes</text>
  <g transform="translate(385,200)">
    <circle cx="15" cy="15" r="14" fill="none" stroke="#00A3E0" stroke-width="2"/>
    <ellipse cx="15" cy="15" rx="14" ry="5" fill="none" stroke="#00A3E0" stroke-width="1.5"/>
    <ellipse cx="15" cy="15" rx="5" ry="14" fill="none" stroke="#00A3E0" stroke-width="1.5"/>
    <line x1="15" y1="1" x2="15" y2="29" stroke="#00A3E0" stroke-width="1.5"/>
    <line x1="1" y1="15" x2="29" y2="15" stroke="#00A3E0" stroke-width="1.5"/>
  </g>  <rect x="40" y="120" width="220" height="80" rx="12" fill="url(#dark-card)" stroke="#1E293B" stroke-width="1.5" />
  <text x="60" y="155" font-family="Inter, system-ui, sans-serif" font-size="15" font-weight="600" fill="#F8FAFC">US Region (Source)</text>
  <text x="60" y="175" font-family="Inter, system-ui, sans-serif" font-size="12" fill="#94A3B8">Origin Server</text>
  <rect x="540" y="120" width="220" height="80" rx="12" fill="url(#dark-card)" stroke="#1E293B" stroke-width="1.5" />
  <text x="560" y="155" font-family="Inter, system-ui, sans-serif" font-size="15" font-weight="600" fill="#F8FAFC">Europe Edge Cache</text>
  <text x="560" y="175" font-family="Inter, system-ui, sans-serif" font-size="12" fill="#94A3B8">Low Latency Access</text>
  <rect x="540" y="300" width="220" height="80" rx="12" fill="url(#dark-card)" stroke="#1E293B" stroke-width="1.5" />
  <text x="560" y="335" font-family="Inter, system-ui, sans-serif" font-size="15" font-weight="600" fill="#F8FAFC">Asia Edge Cache</text>
  <text x="560" y="355" font-family="Inter, system-ui, sans-serif" font-size="12" fill="#94A3B8">Cached close to users</text>
  <line x1="260" y1="160" x2="385" y2="200" stroke="#00A3E0" stroke-width="2"  />
  <path d="M 385 200 L 377.1823090383661 201.6981484117673 L 379.6205148551964 194.0787552341727 Z" fill="#00A3E0" />
  <text x="322.5" y="172.0" font-family="Inter, system-ui, sans-serif" font-size="11" fill="#94A3B8" text-anchor="middle">Deploy</text>
  <line x1="415" y1="215" x2="540" y2="160" stroke="#FF9900" stroke-width="2"  />
  <path d="M 540 160 L 535.2694658927129 166.45151509800556 L 532.0475569785848 159.12899483862344 Z" fill="#FF9900" />
  <text x="477.5" y="179.5" font-family="Inter, system-ui, sans-serif" font-size="11" fill="#94A3B8" text-anchor="middle">Replicate</text>
  <line x1="415" y1="230" x2="540" y2="320" stroke="#FF9900" stroke-width="2"  />
  <path d="M 540 320 L 532.040306250696 319.1979554767409 L 536.7147440574565 312.7056807451289 Z" fill="#FF9900" />
  <text x="477.5" y="267.0" font-family="Inter, system-ui, sans-serif" font-size="11" fill="#94A3B8" text-anchor="middle">Replicate</text>
</svg>