<svg xmlns="http://www.w3.org/2000/svg" viewBox="0 0 800 450" width="100%" height="100%">
  <defs>
    <!-- Gradients -->
    <linearGradient id="aws-orange" x1="0%" y1="0%" x2="100%" y2="100%">
      <stop offset="0%" stop-color="#FF9900" />
      <stop offset="100%" stop-color="#FFC400" />
    </linearGradient>
    <linearGradient id="cloud-blue" x1="0%" y1="0%" x2="100%" y2="100%">
      <stop offset="0%" stop-color="#00A3E0" />
      <stop offset="100%" stop-color="#1D70B8" />
    </linearGradient>
    <linearGradient id="success-green" x1="0%" y1="0%" x2="100%" y2="100%">
      <stop offset="0%" stop-color="#10B981" />
      <stop offset="100%" stop-color="#059669" />
    </linearGradient>
    <linearGradient id="alert-red" x1="0%" y1="0%" x2="100%" y2="100%">
      <stop offset="0%" stop-color="#EF4444" />
      <stop offset="100%" stop-color="#DC2626" />
    </linearGradient>
    <linearGradient id="warning-gold" x1="0%" y1="0%" x2="100%" y2="100%">
      <stop offset="0%" stop-color="#F59E0B" />
      <stop offset="100%" stop-color="#D97706" />
    </linearGradient>
    <linearGradient id="dark-card" x1="0%" y1="0%" x2="0%" y2="100%">
      <stop offset="0%" stop-color="#1E293B" />
      <stop offset="100%" stop-color="#0F172A" />
    </linearGradient>
    
    <!-- Glow Filters -->
    <filter id="glow-orange" x="-20%" y="-20%" width="140%" height="140%">
      <feGaussianBlur stdDeviation="8" result="blur" />
      <feComposite in="SourceGraphic" in2="blur" operator="over" />
    </filter>
    <filter id="glow-blue" x="-20%" y="-20%" width="140%" height="140%">
      <feGaussianBlur stdDeviation="8" result="blur" />
      <feComposite in="SourceGraphic" in2="blur" operator="over" />
    </filter>
    
    <!-- Grid Pattern -->
    <pattern id="grid" width="40" height="40" patternUnits="userSpaceOnUse">
      <path d="M 40 0 L 0 0 0 40" fill="none" stroke="rgba(148, 163, 184, 0.05)" stroke-width="1"/>
    </pattern>
  </defs>

  <!-- Background -->
  <rect width="800" height="450" fill="#0F172A" />
  <rect width="800" height="450" fill="url(#grid)" />
  
  <!-- Slide Header (If provided) -->
  <text x="40" y="45" font-family="Inter, system-ui, sans-serif" font-size="20" font-weight="700" fill="#F8FAFC">SSO &amp; Federated Access</text>
  <rect x="60" y="170" width="180" height="100" rx="12" fill="url(#dark-card)" stroke="#1E293B" stroke-width="1.5" />
  <text x="80" y="205" font-family="Inter, system-ui, sans-serif" font-size="15" font-weight="600" fill="#F8FAFC">Enterprise IdP</text>
  <text x="80" y="225" font-family="Inter, system-ui, sans-serif" font-size="12" fill="#94A3B8">Single Login Creds</text>
  <g transform="translate(140,234)">
    <circle cx="10" cy="8" r="6" fill="none" stroke="#F8FAFC" stroke-width="2"/>
    <path d="M 0 22 C 0 16, 20 16, 20 22" fill="none" stroke="#F8FAFC" stroke-width="2"/>
  </g>  <rect x="290" y="140" width="200" height="160" rx="12" fill="url(#dark-card)" stroke="#1E293B" stroke-width="1.5" />
  <text x="310" y="175" font-family="Inter, system-ui, sans-serif" font-size="15" font-weight="600" fill="#F8FAFC">IAM Identity Center</text>
  <text x="310" y="195" font-family="Inter, system-ui, sans-serif" font-size="12" fill="#94A3B8">Validates identities</text>
  <g transform="translate(380,220)">
    <path d="M 0 0 L 12 0 C 12 0, 24 8, 24 18 C 24 26, 12 32, 12 32 C 12 32, 0 26, 0 18 Z" fill="none" stroke="#00A3E0" stroke-width="2"/>
  </g>  <rect x="550" y="90" width="180" height="60" rx="12" fill="url(#dark-card)" stroke="#1E293B" stroke-width="1.5" />
  <text x="570" y="125" font-family="Inter, system-ui, sans-serif" font-size="15" font-weight="600" fill="#F8FAFC">Development Account</text>
  
  <rect x="550" y="190" width="180" height="60" rx="12" fill="url(#dark-card)" stroke="#1E293B" stroke-width="1.5" />
  <text x="570" y="225" font-family="Inter, system-ui, sans-serif" font-size="15" font-weight="600" fill="#F8FAFC">Billing Account</text>
  
  <rect x="550" y="290" width="180" height="60" rx="12" fill="url(#dark-card)" stroke="#1E293B" stroke-width="1.5" />
  <text x="570" y="325" font-family="Inter, system-ui, sans-serif" font-size="15" font-weight="600" fill="#F8FAFC">Production Account</text>
  
  <line x1="240" y1="220" x2="290" y2="220" stroke="url(#aws-orange)" stroke-width="2"  />
  <path d="M 290 220 L 283.0717967697245 224.0 L 283.0717967697245 216.0 Z" fill="url(#aws-orange)" />
  
  <line x1="490" y1="200" x2="550" y2="130" stroke="url(#aws-orange)" stroke-width="2"  />
  <path d="M 550 130 L 548.5282115136481 137.86344953893914 L 542.4541586947257 132.65711855129138 Z" fill="url(#aws-orange)" />
  
  <line x1="490" y1="220" x2="550" y2="220" stroke="url(#aws-orange)" stroke-width="2"  />
  <path d="M 550 220 L 543.0717967697245 224.0 L 543.0717967697245 216.0 Z" fill="url(#aws-orange)" />
  
  <line x1="490" y1="240" x2="550" y2="310" stroke="url(#aws-orange)" stroke-width="2"  />
  <path d="M 550 310 L 542.4541586947257 307.3428814487086 L 548.5282115136481 302.1365504610609 Z" fill="url(#aws-orange)" />
  
</svg>