<svg xmlns="http://www.w3.org/2000/svg" viewBox="0 0 800 450" width="100%" height="100%">
  <defs>
    <!-- Gradients -->
    <linearGradient id="aws-orange" x1="0%" y1="0%" x2="100%" y2="100%">
      <stop offset="0%" stop-color="#FF9900" />
      <stop offset="100%" stop-color="#FFC400" />
    </linearGradient>
    <linearGradient id="cloud-blue" x1="0%" y1="0%" x2="100%" y2="100%">
      <stop offset="0%" stop-color="#00A3E0" />
      <stop offset="100%" stop-color="#1D70B8" />
    </linearGradient>
    <linearGradient id="success-green" x1="0%" y1="0%" x2="100%" y2="100%">
      <stop offset="0%" stop-color="#10B981" />
      <stop offset="100%" stop-color="#059669" />
    </linearGradient>
    <linearGradient id="alert-red" x1="0%" y1="0%" x2="100%" y2="100%">
      <stop offset="0%" stop-color="#EF4444" />
      <stop offset="100%" stop-color="#DC2626" />
    </linearGradient>
    <linearGradient id="warning-gold" x1="0%" y1="0%" x2="100%" y2="100%">
      <stop offset="0%" stop-color="#F59E0B" />
      <stop offset="100%" stop-color="#D97706" />
    </linearGradient>
    <linearGradient id="dark-card" x1="0%" y1="0%" x2="0%" y2="100%">
      <stop offset="0%" stop-color="#1E293B" />
      <stop offset="100%" stop-color="#0F172A" />
    </linearGradient>
    
    <!-- Glow Filters -->
    <filter id="glow-orange" x="-20%" y="-20%" width="140%" height="140%">
      <feGaussianBlur stdDeviation="8" result="blur" />
      <feComposite in="SourceGraphic" in2="blur" operator="over" />
    </filter>
    <filter id="glow-blue" x="-20%" y="-20%" width="140%" height="140%">
      <feGaussianBlur stdDeviation="8" result="blur" />
      <feComposite in="SourceGraphic" in2="blur" operator="over" />
    </filter>
    
    <!-- Grid Pattern -->
    <pattern id="grid" width="40" height="40" patternUnits="userSpaceOnUse">
      <path d="M 40 0 L 0 0 0 40" fill="none" stroke="rgba(148, 163, 184, 0.05)" stroke-width="1"/>
    </pattern>
  </defs>

  <!-- Background -->
  <rect width="800" height="450" fill="#0F172A" />
  <rect width="800" height="450" fill="url(#grid)" />
  
  <!-- Slide Header (If provided) -->
  <text x="40" y="45" font-family="Inter, system-ui, sans-serif" font-size="20" font-weight="700" fill="#F8FAFC">Hybrid VPC Connectivity</text>
  <rect x="60" y="160" width="180" height="120" rx="12" fill="url(#dark-card)" stroke="#1E293B" stroke-width="1.5" />
  <text x="80" y="195" font-family="Inter, system-ui, sans-serif" font-size="15" font-weight="600" fill="#F8FAFC">Corporate Office</text>
  
  <g transform="translate(140,210)">
    <circle cx="10" cy="8" r="6" fill="none" stroke="#F8FAFC" stroke-width="2"/>
    <path d="M 0 22 C 0 16, 20 16, 20 22" fill="none" stroke="#F8FAFC" stroke-width="2"/>
  </g>  <rect x="550" y="100" width="200" height="110" rx="12" fill="url(#dark-card)" stroke="#1E293B" stroke-width="1.5" />
  <text x="570" y="135" font-family="Inter, system-ui, sans-serif" font-size="15" font-weight="600" fill="#F8FAFC">AWS VPN connection</text>
  
  <g transform="translate(638,145)">
    <rect x="0" y="10" width="20" height="15" rx="3" fill="none" stroke="#10B981" stroke-width="2"/>
    <path d="M 4 10 L 4 6 A 6 6 0 0 1 16 6 L 16 10" fill="none" stroke="#10B981" stroke-width="2"/>
  </g>  <rect x="550" y="240" width="200" height="110" rx="12" fill="url(#dark-card)" stroke="#1E293B" stroke-width="1.5" />
  <text x="570" y="275" font-family="Inter, system-ui, sans-serif" font-size="15" font-weight="600" fill="#F8FAFC">AWS Direct Connect</text>
  
  <g transform="translate(635,285)">
    <circle cx="15" cy="15" r="14" fill="none" stroke="#00A3E0" stroke-width="2"/>
    <ellipse cx="15" cy="15" rx="14" ry="5" fill="none" stroke="#00A3E0" stroke-width="1.5"/>
    <ellipse cx="15" cy="15" rx="5" ry="14" fill="none" stroke="#00A3E0" stroke-width="1.5"/>
    <line x1="15" y1="1" x2="15" y2="29" stroke="#00A3E0" stroke-width="1.5"/>
    <line x1="1" y1="15" x2="29" y2="15" stroke="#00A3E0" stroke-width="1.5"/>
  </g>  <line x1="240" y1="200" x2="550" y2="160" stroke="#10B981" stroke-width="2"  />
  <path d="M 550 160 L 543.6406467311912 164.8537229012883 L 542.6168760301496 156.91949996821612 Z" fill="#10B981" />
  <text x="395.0" y="172.0" font-family="Inter, system-ui, sans-serif" font-size="11" fill="#94A3B8" text-anchor="middle">Encrypted Tunnel</text>
  <line x1="240" y1="240" x2="550" y2="280" stroke="#00A3E0" stroke-width="2"  />
  <path d="M 550 280 L 542.6168760301496 283.0805000317839 L 543.6406467311912 275.1462770987117 Z" fill="#00A3E0" />
  <text x="395.0" y="252.0" font-family="Inter, system-ui, sans-serif" font-size="11" fill="#94A3B8" text-anchor="middle">Dedicated Fiber Line</text>
</svg>